<svg width="42" height="40" viewBox="0 0 42 40" fill="none" xmlns="http://www.w3.org/2000/svg">
<circle cx="20.1187" cy="20.0943" r="18.5467" fill="#FBF4DA"/>
<path d="M38.3511 22.8129L37.6425 22.731L38.3511 22.8129ZM38.194 24.1723L37.4853 24.0903L38.194 24.1723ZM37.3571 26.7119L36.7389 26.3559L37.3571 26.7119ZM35.9976 29.0725L36.6157 29.4285L35.9976 29.0725ZM34.4808 31.3251L33.9185 30.8862L34.4808 31.3251ZM33.6438 32.3974L34.2061 32.8363L33.6438 32.3974ZM32.8068 33.4697L32.2445 33.0307L32.8068 33.4697ZM30.81 35.2865L30.4246 34.6863L30.81 35.2865ZM28.4904 36.7757L28.8758 37.376L28.4904 36.7757ZM25.98 37.7743L25.8482 37.0732L25.98 37.7743ZM24.6295 38.0282L24.4976 37.3272L24.6295 38.0282ZM23.2789 38.2822L23.4107 38.9832L23.2789 38.2822ZM17.8546 38.3252L17.8915 37.6128L17.8546 38.3252ZM15.1821 37.8626L15.3861 37.1791L15.1821 37.8626ZM13.8676 37.4704L13.6636 38.154L13.8676 37.4704ZM12.553 37.0782L12.349 37.7618L12.553 37.0782ZM10.1511 35.8412L10.5888 35.2779L10.1511 35.8412ZM7.97668 34.1516L8.41436 33.5883L7.97668 34.1516ZM6.18119 32.1462L6.79009 31.7746L6.18119 32.1462ZM4.76467 29.8251L4.15577 30.1967L4.76467 29.8251ZM3.43874 27.4398L2.80183 27.7611L3.43874 27.4398ZM2.20339 24.9905L2.8403 24.6692L2.20339 24.9905ZM3.43672 11.7169L2.86183 11.2946L3.43672 11.7169ZM6.86688 7.45071L6.37519 6.9339L6.86688 7.45071ZM8.83497 5.57827L8.34328 5.06147L8.83497 5.57827ZM11.0415 4.02791L10.7213 3.39049L11.0415 4.02791ZM13.4865 2.79961L13.8067 3.43703L13.4865 2.79961ZM21.4657 1.51308L21.2679 2.19843L21.4657 1.51308ZM22.7885 1.89492L22.5906 2.58027L22.7885 1.89492ZM24.1112 2.27676L24.3091 1.59141L24.1112 2.27676ZM28.0543 3.50187L27.8358 4.18091L28.0543 3.50187ZM29.3645 3.9235L29.1459 4.60254L29.3645 3.9235ZM31.6276 5.34372L32.1436 4.85124L31.6276 5.34372ZM33.5335 7.34088L33.0174 7.83335L33.5335 7.34088ZM35.2382 9.48697L35.8349 9.09607L35.2382 9.48697ZM36.7416 11.782L36.145 12.1729L36.7416 11.782ZM37.6763 14.2822L36.9695 14.3778L37.6763 14.2822ZM38.0423 16.9876L38.7492 16.892L38.0423 16.9876ZM38.3353 18.7788L39.0272 18.6052L38.3353 18.7788ZM38.5554 19.6558L37.8635 19.8294L38.5554 19.6558ZM38.5083 21.4536L39.2169 21.5355L38.5083 21.4536ZM38.3511 22.8129L37.6425 22.731L37.4853 24.0903L38.194 24.1723L38.9026 24.2542L39.0597 22.8949L38.3511 22.8129ZM38.194 24.1723L37.4853 24.0903C37.3917 24.9004 37.1433 25.6537 36.7389 26.3559L37.3571 26.7119L37.9752 27.0679C38.4771 26.1964 38.7867 25.2565 38.9026 24.2542L38.194 24.1723ZM37.3571 26.7119L36.7389 26.3559L36.0592 27.5362L36.6773 27.8922L37.2955 28.2482L37.9752 27.0679L37.3571 26.7119ZM36.6773 27.8922L36.0592 27.5362L35.3794 28.7165L35.9976 29.0725L36.6157 29.4285L37.2955 28.2482L36.6773 27.8922ZM35.9976 29.0725L35.3794 28.7165C34.9429 29.4745 34.456 30.1977 33.9185 30.8862L34.4808 31.3251L35.0431 31.7641C35.6217 31.0229 36.146 30.2443 36.6157 29.4285L35.9976 29.0725ZM34.4808 31.3251L33.9185 30.8862L33.0815 31.9585L33.6438 32.3974L34.2061 32.8363L35.0431 31.7641L34.4808 31.3251ZM33.6438 32.3974L33.0815 31.9585L32.2445 33.0307L32.8068 33.4697L33.3691 33.9086L34.2061 32.8363L33.6438 32.3974ZM32.8068 33.4697L32.2445 33.0307C31.7366 33.6814 31.131 34.2327 30.4246 34.6863L30.81 35.2865L31.1953 35.8868C32.0353 35.3476 32.7609 34.6877 33.3691 33.9086L32.8068 33.4697ZM30.81 35.2865L30.4246 34.6863L29.2648 35.4308L29.6502 36.0311L30.0355 36.6314L31.1953 35.8868L30.81 35.2865ZM29.6502 36.0311L29.2648 35.4308L28.105 36.1754L28.4904 36.7757L28.8758 37.376L30.0355 36.6314L29.6502 36.0311ZM28.4904 36.7757L28.105 36.1754C27.4088 36.6224 26.6581 36.9209 25.8482 37.0732L25.98 37.7743L26.1119 38.4753C27.1027 38.289 28.0256 37.9218 28.8758 37.376L28.4904 36.7757ZM25.98 37.7743L25.8482 37.0732L24.4976 37.3272L24.6295 38.0282L24.7613 38.7293L26.1119 38.4753L25.98 37.7743ZM24.6295 38.0282L24.4976 37.3272L23.1471 37.5812L23.2789 38.2822L23.4107 38.9832L24.7613 38.7293L24.6295 38.0282ZM23.2789 38.2822L23.1471 37.5812C22.3017 37.7401 21.4555 37.7974 20.6073 37.7535L20.5704 38.4658L20.5336 39.1782C21.4959 39.2281 22.4554 39.1629 23.4107 38.9832L23.2789 38.2822ZM20.5704 38.4658L20.6073 37.7535L19.2494 37.6831L19.2125 38.3955L19.1756 39.1079L20.5336 39.1782L20.5704 38.4658ZM19.2125 38.3955L19.2494 37.6831L17.8915 37.6128L17.8546 38.3252L17.8177 39.0375L19.1756 39.1079L19.2125 38.3955ZM17.8546 38.3252L17.8915 37.6128C17.0434 37.5689 16.2086 37.4245 15.3861 37.1791L15.1821 37.8626L14.9782 38.5462C15.9084 38.8237 16.8553 38.9877 17.8177 39.0375L17.8546 38.3252ZM15.1821 37.8626L15.3861 37.1791L14.0715 36.7869L13.8676 37.4704L13.6636 38.154L14.9782 38.5462L15.1821 37.8626ZM13.8676 37.4704L14.0715 36.7869L12.7569 36.3947L12.553 37.0782L12.349 37.7618L13.6636 38.154L13.8676 37.4704ZM12.553 37.0782L12.7569 36.3947C11.9655 36.1586 11.2441 35.7871 10.5888 35.2779L10.1511 35.8412L9.71347 36.4045C10.5078 37.0217 11.3876 37.475 12.349 37.7618L12.553 37.0782ZM10.1511 35.8412L10.5888 35.2779L9.50159 34.4331L9.06391 34.9964L8.62623 35.5597L9.71347 36.4045L10.1511 35.8412ZM9.06391 34.9964L9.50159 34.4331L8.41436 33.5883L7.97668 34.1516L7.539 34.7149L8.62623 35.5597L9.06391 34.9964ZM7.97668 34.1516L8.41436 33.5883C7.75686 33.0774 7.21668 32.4737 6.79009 31.7746L6.18119 32.1462L5.57228 32.5178C6.09003 33.3662 6.74685 34.0994 7.539 34.7149L7.97668 34.1516ZM6.18119 32.1462L6.79009 31.7746L6.08183 30.6141L5.47293 30.9857L4.86403 31.3572L5.57228 32.5178L6.18119 32.1462ZM5.47293 30.9857L6.08183 30.6141L5.37358 29.4535L4.76467 29.8251L4.15577 30.1967L4.86403 31.3572L5.47293 30.9857ZM4.76467 29.8251L5.37358 29.4535C4.91151 28.6963 4.47886 27.918 4.07565 27.1186L3.43874 27.4398L2.80183 27.7611C3.22219 28.5945 3.6735 29.4064 4.15577 30.1967L4.76467 29.8251ZM3.43874 27.4398L4.07565 27.1186L3.45798 25.8939L2.82107 26.2151L2.18415 26.5364L2.80183 27.7611L3.43874 27.4398ZM2.82107 26.2151L3.45798 25.8939L2.8403 24.6692L2.20339 24.9905L1.56648 25.3117L2.18415 26.5364L2.82107 26.2151ZM2.20339 24.9905L2.8403 24.6692C2.47817 23.9512 2.2944 23.1912 2.2878 22.3805L1.57449 22.3863L0.861183 22.3921C0.869548 23.4207 1.10503 24.3968 1.56648 25.3117L2.20339 24.9905ZM1.57449 22.3863L2.2878 22.3805L2.27658 21.001L1.56327 21.0068L0.849965 21.0126L0.861183 22.3921L1.57449 22.3863ZM1.56327 21.0068L2.27658 21.001L2.26537 19.6215L1.55206 19.6273L0.838747 19.6331L0.849965 21.0126L1.56327 21.0068ZM1.55206 19.6273L2.26537 19.6215C2.25829 18.7506 2.33997 17.8877 2.51054 17.032L1.81097 16.8925L1.11139 16.7531C0.921795 17.7043 0.830871 18.6646 0.838747 19.6331L1.55206 19.6273ZM1.81097 16.8925L2.51054 17.032L2.78067 15.6768L2.08109 15.5373L1.38152 15.3979L1.11139 16.7531L1.81097 16.8925ZM2.08109 15.5373L2.78067 15.6768L3.05079 14.3215L2.35122 14.1821L1.65165 14.0426L1.38152 15.3979L2.08109 15.5373ZM2.35122 14.1821L3.05079 14.3215C3.21056 13.52 3.52998 12.7948 4.01161 12.1392L3.43672 11.7169L2.86183 11.2946C2.2563 12.1189 1.85205 13.0372 1.65165 14.0426L2.35122 14.1821ZM3.43672 11.7169L4.01161 12.1392L4.82698 11.0292L4.25209 10.6069L3.6772 10.1846L2.86183 11.2946L3.43672 11.7169ZM4.25209 10.6069L4.82698 11.0292L5.64235 9.91921L5.06746 9.49691L4.49257 9.0746L3.6772 10.1846L4.25209 10.6069ZM5.06746 9.49691L5.64235 9.91921C6.16139 9.21264 6.73343 8.56227 7.35857 7.96751L6.86688 7.45071L6.37519 6.9339C5.68827 7.58744 5.06069 8.3012 4.49257 9.0746L5.06746 9.49691ZM6.86688 7.45071L7.35857 7.96751L8.34261 7.0313L7.85092 6.51449L7.35924 5.99768L6.37519 6.9339L6.86688 7.45071ZM7.85092 6.51449L8.34261 7.0313L9.32666 6.09508L8.83497 5.57827L8.34328 5.06147L7.35924 5.99768L7.85092 6.51449ZM8.83497 5.57827L9.32666 6.09508C9.93141 5.51972 10.6091 5.04345 11.3617 4.66533L11.0415 4.02791L10.7213 3.39049C9.84397 3.83123 9.05059 4.38854 8.34328 5.06147L8.83497 5.57827ZM11.0415 4.02791L11.3617 4.66533L12.5842 4.05118L12.264 3.41376L11.9438 2.77634L10.7213 3.39049L11.0415 4.02791ZM12.264 3.41376L12.5842 4.05118L13.8067 3.43703L13.4865 2.79961L13.1663 2.16219L11.9438 2.77634L12.264 3.41376ZM13.4865 2.79961L13.8067 3.43703C14.5628 3.05722 15.361 2.78561 16.2034 2.62219L16.0675 1.92191L15.9316 1.22163C14.9627 1.40962 14.0403 1.72314 13.1663 2.16219L13.4865 2.79961ZM16.0675 1.92191L16.2034 2.62219L17.5618 2.35863L17.426 1.65835L17.2901 0.958078L15.9316 1.22163L16.0675 1.92191ZM17.426 1.65835L17.5618 2.35863L18.9203 2.09507L18.7845 1.3948L18.6486 0.694521L17.2901 0.958078L17.426 1.65835ZM18.7845 1.3948L18.9203 2.09507C19.7157 1.94076 20.4951 1.97535 21.2679 2.19843L21.4657 1.51308L21.6635 0.827731C20.6726 0.541688 19.6645 0.497425 18.6486 0.694521L18.7845 1.3948ZM21.4657 1.51308L21.2679 2.19843L22.5906 2.58027L22.7885 1.89492L22.9863 1.20957L21.6635 0.827731L21.4657 1.51308ZM22.7885 1.89492L22.5906 2.58027L23.9134 2.96211L24.1112 2.27676L24.3091 1.59141L22.9863 1.20957L22.7885 1.89492ZM24.1112 2.27676L23.9134 2.96211C24.7883 3.21467 25.659 3.48039 26.5256 3.75927L26.7441 3.08024L26.9627 2.4012C26.0824 2.1179 25.1978 1.84797 24.3091 1.59141L24.1112 2.27676ZM26.7441 3.08024L26.5256 3.75927L27.8358 4.18091L28.0543 3.50187L28.2728 2.82283L26.9627 2.4012L26.7441 3.08024ZM28.0543 3.50187L27.8358 4.18091L29.1459 4.60254L29.3645 3.9235L29.583 3.24447L28.2728 2.82283L28.0543 3.50187ZM29.3645 3.9235L29.1459 4.60254C29.9059 4.8471 30.5581 5.25622 31.1115 5.83619L31.6276 5.34372L32.1436 4.85124C31.4265 4.09977 30.5699 3.56209 29.583 3.24447L29.3645 3.9235ZM31.6276 5.34372L31.1115 5.83619L32.0645 6.83477L32.5805 6.3423L33.0966 5.84982L32.1436 4.85124L31.6276 5.34372ZM32.5805 6.3423L32.0645 6.83477L33.0174 7.83335L33.5335 7.34088L34.0495 6.8484L33.0966 5.84982L32.5805 6.3423ZM33.5335 7.34088L33.0174 7.83335C33.623 8.46793 34.1642 9.14932 34.6415 9.87786L35.2382 9.48697L35.8349 9.09607C35.3098 8.2946 34.7146 7.54527 34.0495 6.8484L33.5335 7.34088ZM35.2382 9.48697L34.6415 9.87786L35.3932 11.0254L35.9899 10.6345L36.5866 10.2436L35.8349 9.09607L35.2382 9.48697ZM35.9899 10.6345L35.3932 11.0254L36.145 12.1729L36.7416 11.782L37.3383 11.3911L36.5866 10.2436L35.9899 10.6345ZM36.7416 11.782L36.145 12.1729C36.5881 12.8494 36.8618 13.582 36.9695 14.3778L37.6763 14.2822L38.3832 14.1866C38.2469 13.1788 37.8975 12.2446 37.3383 11.3911L36.7416 11.782ZM37.6763 14.2822L36.9695 14.3778L37.1524 15.7305L37.8593 15.6349L38.5662 15.5393L38.3832 14.1866L37.6763 14.2822ZM37.8593 15.6349L37.1524 15.7305L37.3354 17.0832L38.0423 16.9876L38.7492 16.892L38.5662 15.5393L37.8593 15.6349ZM38.0423 16.9876L37.3354 17.0832C37.4564 17.9782 37.5587 18.615 37.6434 18.9524L38.3353 18.7788L39.0272 18.6052C38.9651 18.3579 38.8721 17.8006 38.7492 16.892L38.0423 16.9876ZM38.3353 18.7788L37.6434 18.9524L37.7535 19.3909L38.4453 19.2173L39.1372 19.0437L39.0272 18.6052L38.3353 18.7788ZM38.4453 19.2173L37.7535 19.3909L37.8635 19.8294L38.5554 19.6558L39.2473 19.4821L39.1372 19.0437L38.4453 19.2173ZM38.5554 19.6558L37.8635 19.8294C37.8756 19.8776 37.893 20.0203 37.8855 20.3058C37.8784 20.5764 37.8507 20.93 37.7997 21.3717L38.5083 21.4536L39.2169 21.5355C39.2706 21.071 39.3031 20.6718 39.3117 20.3432C39.3199 20.0294 39.3085 19.7263 39.2473 19.4821L38.5554 19.6558ZM38.5083 21.4536L37.7997 21.3717L37.6425 22.731L38.3511 22.8129L39.0597 22.8949L39.2169 21.5355L38.5083 21.4536Z" fill="black"/>
<path d="M30.5173 13.3727C31.0744 12.8155 31.9887 12.8155 32.5458 13.3727C32.9739 13.8007 33.0541 14.4327 32.8245 14.9554V15L32.6796 15.2452L32.6461 15.3121C32.5791 15.4265 32.511 15.5107 32.4901 15.535C32.4614 15.5683 32.4305 15.5941 32.4121 15.613C32.3754 15.6505 32.3308 15.6854 32.3006 15.7133C32.2374 15.7716 32.1548 15.8492 32.0666 15.9251C31.8878 16.0787 31.6308 16.2945 31.3086 16.5604L30.3501 17.3518L29.3804 18.1543C28.7575 18.6684 28.1533 19.2012 27.5636 19.7481L26.6385 20.5952L25.7246 21.4423C25.1629 21.9633 24.6395 22.5278 24.153 23.1253L22.5703 25.0647C22.0139 25.748 21.4503 26.3809 20.8761 26.9483L19.2711 28.531C18.8155 28.9813 18.1858 29.3457 17.4098 29.3335C16.663 29.3201 16.041 28.9657 15.5819 28.5645L14.6456 27.7397L13.6982 26.9149C13.038 26.3377 12.1216 25.4659 10.9564 24.3179L9.20646 22.6014L9.2176 22.5903C8.64427 22.1014 8.53194 21.256 8.99469 20.6509C9.47396 20.0267 10.3761 19.9055 11.0009 20.3834L11.079 20.4503L11.2127 20.5618L12.9515 22.2782C14.1086 23.4183 14.9868 24.2435 15.5819 24.7637L16.5181 25.5885L17.3986 26.3576L18.0674 25.7111L18.8699 24.9198C19.3625 24.433 19.8544 23.8815 20.3523 23.2702L21.1548 22.3005L21.9461 21.3197C22.5146 20.6218 23.1278 19.9681 23.7852 19.358L24.6992 18.4998L25.6131 17.6527C26.2439 17.0675 26.8977 16.497 27.5636 15.9474L28.5333 15.156L29.4919 14.3535C29.7462 14.1436 29.9543 13.9797 30.1049 13.852L30.116 13.7851L30.4504 13.4507L30.5173 13.3727Z" fill="#A38461"/>
</svg>
