<svg width="213" height="64" viewBox="0 0 213 64" fill="none" xmlns="http://www.w3.org/2000/svg">
<g opacity="0.99">
<path d="M0.907562 32.3875C0.907562 15.841 14.3211 2.42749 30.8676 2.42749H182.094C198.641 2.42749 212.054 15.841 212.054 32.3875C212.054 48.9339 198.641 62.3475 182.094 62.3475H30.8676C14.3211 62.3475 0.907562 48.9339 0.907562 32.3875Z" fill="#C6BDB4"/>
<path d="M44.3585 2.51281L44.3531 1.30015L44.3585 2.51281ZM47.0567 2.50086L47.062 3.71351L47.0567 2.50086ZM49.7548 2.48891L49.7495 1.27625L49.7548 2.48891ZM55.1512 2.40528L55.119 1.19304L55.1512 2.40528ZM65.944 2.35065L65.872 3.56118L65.944 2.35065ZM71.3403 2.67146L71.2683 3.88199L71.3403 2.67146ZM82.133 2.36885L82.0638 1.15817L82.133 2.36885ZM87.5294 2.20233L87.5349 3.41499L87.5294 2.20233ZM92.9258 2.17797L92.9203 0.965316L92.9258 2.17797ZM103.719 2.26801L103.703 3.48058L103.719 2.26801ZM119.908 2.42212L119.86 3.63384L119.908 2.42212ZM130.7 2.60943L130.64 1.39825L130.7 2.60943ZM136.097 2.34201L136.037 1.13083L136.097 2.34201ZM141.493 2.25858L141.516 1.04613L141.493 2.25858ZM146.889 2.35915L146.867 3.5716L146.889 2.35915ZM168.475 2.52222L168.442 3.73445L168.475 2.52222ZM173.871 2.49134L173.825 1.27956L173.871 2.49134ZM194.809 5.65478L194.136 6.66337L194.809 5.65478ZM199.258 8.62448L199.931 7.61588L199.258 8.62448ZM203.212 12.1336L204.134 11.3457L203.212 12.1336ZM206.672 16.1821L205.75 16.9699L206.672 16.1821ZM209.144 20.763L207.979 21.1009L209.144 20.763ZM210.628 25.8762L211.792 25.5383L210.628 25.8762ZM211.156 33.7283L209.945 33.6794L211.156 33.7283ZM210.043 41.5572L208.9 41.1516L210.043 41.5572ZM208.245 46.6244L207.102 46.2187L208.245 46.6244ZM205.454 51.1021L204.584 50.2564L205.454 51.1021ZM203.562 53.0462L204.431 53.8919L203.562 53.0462ZM197.296 57.9645L196.831 56.8444L197.296 57.9645ZM194.813 58.9944L194.348 57.8743L194.813 58.9944ZM192.33 60.0244L192.795 61.1445L192.33 60.0244ZM187.189 61.2642L187.093 60.0553L187.189 61.2642ZM181.872 61.6838L181.968 62.8927L181.872 61.6838ZM176.516 61.9586L176.486 60.7463L176.516 61.9586ZM171.119 62.0886L171.148 63.3009L171.119 62.0886ZM165.723 62.3004L165.657 61.0896L165.723 62.3004ZM163.025 62.4472L162.959 61.2363L163.025 62.4472ZM160.327 62.594L160.392 63.8049L160.327 62.594ZM154.93 62.6754L154.96 61.4631L154.93 62.6754ZM149.534 62.5446L149.504 63.7569L149.534 62.5446ZM144.137 62.4812L144.137 61.2686L144.137 62.4812ZM141.439 62.4832L141.44 63.6959L141.439 62.4832ZM138.741 62.4852L138.74 61.2725L138.741 62.4852ZM133.345 62.5532L133.374 63.7655L133.345 62.5532ZM130.647 62.6192L130.617 61.4069L130.647 62.6192ZM122.552 62.5673L122.47 63.7772L122.552 62.5673ZM119.854 62.3835L119.771 63.5933L119.854 62.3835ZM117.156 62.1996L117.238 60.9897L117.156 62.1996ZM111.759 62.0259L111.755 60.8132L111.759 62.0259ZM109.061 62.0361L109.056 60.8235L109.061 62.0361ZM106.363 62.0464L106.367 63.259L106.363 62.0464ZM98.2683 62.017L98.2772 60.8043L98.2683 62.017ZM95.5702 61.9971L95.5612 63.2098L95.5702 61.9971ZM90.1738 62.0342L90.1993 63.2466L90.1738 62.0342ZM84.7774 62.1479L84.7519 60.9355L84.7774 62.1479ZM79.3811 62.2477L79.3617 61.0352L79.3811 62.2477ZM76.6829 62.2907L76.6636 61.0782L76.6829 62.2907ZM73.9847 62.3336L74.004 63.5462L73.9847 62.3336ZM68.5883 62.2845L68.6297 61.0725L68.5883 62.2845ZM65.8901 62.1924L65.8488 63.4043L65.8901 62.1924ZM63.192 62.1003L63.1506 63.3122L63.192 62.1003ZM57.7956 61.9991L57.7915 63.2118L57.7956 61.9991ZM52.3992 61.9811L52.4033 60.7685L52.3992 61.9811ZM47.0029 62.1511L47.0831 63.3611L47.0029 62.1511ZM41.6065 62.509L41.6867 63.719L41.6065 62.509ZM36.2027 62.6594L36.2155 61.4468L36.2027 62.6594ZM30.7915 62.6022L30.7787 63.8148L30.7915 62.6022ZM25.5482 61.6851L25.1475 62.8296L25.5482 61.6851ZM23.0105 60.7966L23.4112 59.652L23.0105 60.7966ZM20.4728 59.9081L20.0721 61.0526L20.4728 59.9081ZM15.7708 57.4761L16.4749 56.4888L15.7708 57.4761ZM13.6065 55.9326L12.9024 56.9199L13.6065 55.9326ZM11.4422 54.3891L10.7381 55.3764L11.4422 54.3891ZM7.69728 50.6671L6.71575 51.3793L7.69728 50.6671ZM4.53607 46.3102L5.5176 45.598L4.53607 46.3102ZM1.69288 36.17L0.495181 36.36L1.69288 36.17ZM3.763 20.5844L4.80596 21.2031L3.763 20.5844ZM5.12687 18.2853L4.0839 17.6666L5.12687 18.2853ZM9.88619 11.9833L9.10698 11.0541L9.88619 11.9833ZM20.9563 5.08057L20.5455 3.93962L20.9563 5.08057ZM23.444 4.18473L23.0332 3.04378L23.444 4.18473ZM27.1657 3.07353L26.9572 1.87892L27.1657 3.07353ZM28.3997 2.85819L28.1912 1.66358L28.3997 2.85819ZM36.2639 2.47612L36.253 3.68874L38.9512 3.71306L38.9621 2.50044L38.973 1.28782L36.2749 1.26351L36.2639 2.47612ZM38.9621 2.50044L38.9512 3.71306C40.7554 3.72932 42.5596 3.73345 44.3639 3.72546L44.3585 2.51281L44.3531 1.30015C42.5598 1.30809 40.7664 1.30398 38.973 1.28782L38.9621 2.50044ZM44.3585 2.51281L44.3639 3.72546L47.062 3.71351L47.0567 2.50086L47.0513 1.2882L44.3531 1.30015L44.3585 2.51281ZM47.0567 2.50086L47.062 3.71351L49.7602 3.70156L49.7548 2.48891L49.7495 1.27625L47.0513 1.2882L47.0567 2.50086ZM49.7548 2.48891L49.7602 3.70156C51.568 3.69356 53.3757 3.66554 55.1834 3.61752L55.1512 2.40528L55.119 1.19304C53.3292 1.24059 51.5393 1.26833 49.7495 1.27625L49.7548 2.48891ZM55.1512 2.40528L55.1834 3.61752L57.8816 3.54584L57.8494 2.3336L57.8172 1.12136L55.119 1.19304L55.1512 2.40528ZM57.8494 2.3336L57.8816 3.54584L60.5798 3.47416L60.5476 2.26192L60.5154 1.04969L57.8172 1.12136L57.8494 2.3336ZM60.5476 2.26192L60.5798 3.47416C62.3438 3.4273 64.1078 3.4563 65.872 3.56118L65.944 2.35065L66.0159 1.14012C64.1825 1.03113 62.3489 1.00098 60.5154 1.04969L60.5476 2.26192ZM65.944 2.35065L65.872 3.56118L68.5702 3.72158L68.6421 2.51105L68.7141 1.30052L66.0159 1.14012L65.944 2.35065ZM68.6421 2.51105L68.5702 3.72158L71.2683 3.88199L71.3403 2.67146L71.4123 1.46093L68.7141 1.30052L68.6421 2.51105ZM71.3403 2.67146L71.2683 3.88199C73.1142 3.99172 74.9601 3.99379 76.8059 3.88821L76.7367 2.67753L76.6674 1.46684C74.9157 1.56704 73.164 1.56507 71.4123 1.46093L71.3403 2.67146ZM76.7367 2.67753L76.8059 3.88821L79.5041 3.73388L79.4349 2.52319L79.3656 1.3125L76.6674 1.46684L76.7367 2.67753ZM79.4349 2.52319L79.5041 3.73388L82.2023 3.57954L82.133 2.36885L82.0638 1.15817L79.3656 1.3125L79.4349 2.52319ZM82.133 2.36885L82.2023 3.57954C83.9799 3.47786 85.7574 3.42301 87.5349 3.41499L87.5294 2.20233L87.5239 0.98968C85.7038 0.997898 83.8838 1.05406 82.0638 1.15817L82.133 2.36885ZM87.5294 2.20233L87.5349 3.41499L90.2331 3.40281L90.2276 2.19015L90.2221 0.977498L87.5239 0.98968L87.5294 2.20233ZM90.2276 2.19015L90.2331 3.40281L92.9313 3.39062L92.9258 2.17797L92.9203 0.965316L90.2221 0.977498L90.2276 2.19015ZM92.9258 2.17797L92.9313 3.39062C94.7231 3.38253 96.515 3.3898 98.3068 3.41243L98.3222 2.19986L98.3375 0.987292C96.5317 0.964489 94.726 0.957163 92.9203 0.965316L92.9258 2.17797ZM98.3222 2.19986L98.3068 3.41243L101.005 3.44651L101.02 2.23394L101.036 1.02137L98.3375 0.987292L98.3222 2.19986ZM101.02 2.23394L101.005 3.44651L103.703 3.48058L103.719 2.26801L103.734 1.05544L101.036 1.02137L101.02 2.23394ZM103.719 2.26801L103.703 3.48058C105.507 3.50335 107.31 3.51583 109.113 3.51801L109.115 2.30534L109.116 1.09268C107.322 1.09051 105.528 1.0781 103.734 1.05544L103.719 2.26801ZM109.115 2.30534L109.113 3.51801L111.812 3.52127L111.813 2.3086L111.815 1.09593L109.116 1.09268L109.115 2.30534ZM111.813 2.3086L111.812 3.52127L114.51 3.52452L114.511 2.31186L114.513 1.09919L111.815 1.09593L111.813 2.3086ZM114.511 2.31186L114.51 3.52452C116.293 3.52668 118.076 3.56311 119.86 3.63384L119.908 2.42212L119.956 1.21041C118.141 1.13846 116.327 1.10138 114.513 1.09919L114.511 2.31186ZM119.908 2.42212L119.86 3.63384L122.558 3.74084L122.606 2.52913L122.654 1.31741L119.956 1.21041L119.908 2.42212ZM122.606 2.52913L122.558 3.74084L125.256 3.84785L125.304 2.63614L125.352 1.42442L122.654 1.31741L122.606 2.52913ZM125.304 2.63614L125.256 3.84785C127.091 3.92062 128.926 3.91154 130.76 3.82061L130.7 2.60943L130.64 1.39825C128.878 1.48561 127.115 1.49433 125.352 1.42442L125.304 2.63614ZM130.7 2.60943L130.76 3.82061L133.459 3.6869L133.399 2.47572L133.339 1.26454L130.64 1.39825L130.7 2.60943ZM133.399 2.47572L133.459 3.6869L136.157 3.55319L136.097 2.34201L136.037 1.13083L133.339 1.26454L133.399 2.47572ZM136.097 2.34201L136.157 3.55319C137.928 3.46541 139.699 3.43803 141.47 3.47104L141.493 2.25858L141.516 1.04613C139.689 1.01209 137.863 1.04033 136.037 1.13083L136.097 2.34201ZM141.493 2.25858L141.47 3.47104L144.169 3.52132L144.191 2.30886L144.214 1.09641L141.516 1.04613L141.493 2.25858ZM144.191 2.30886L144.169 3.52132L146.867 3.5716L146.889 2.35915L146.912 1.14669L144.214 1.09641L144.191 2.30886ZM146.889 2.35915L146.867 3.5716C148.677 3.60534 150.487 3.61344 152.298 3.59591L152.286 2.3833L152.274 1.17069C150.487 1.188 148.699 1.18 146.912 1.14669L146.889 2.35915ZM152.286 2.3833L152.298 3.59591L154.996 3.56979L154.984 2.35718L154.972 1.14457L152.274 1.17069L152.286 2.3833ZM154.984 2.35718L154.996 3.56979L157.694 3.54366L157.682 2.33105L157.67 1.11844L154.972 1.14457L154.984 2.35718ZM157.682 2.33105L157.694 3.54366C159.478 3.52638 161.262 3.54169 163.046 3.58958L163.079 2.37735L163.111 1.16512C161.298 1.11644 159.484 1.10088 157.67 1.11844L157.682 2.33105ZM163.079 2.37735L163.046 3.58958L165.744 3.66202L165.777 2.44979L165.809 1.23756L163.111 1.16512L163.079 2.37735ZM165.777 2.44979L165.744 3.66202L168.442 3.73445L168.475 2.52222L168.507 1.30999L165.809 1.23756L165.777 2.44979ZM168.475 2.52222L168.442 3.73445C170.267 3.78344 172.093 3.773 173.918 3.70312L173.871 2.49134L173.825 1.27956C172.052 1.34743 170.28 1.35757 168.507 1.30999L168.475 2.52222ZM173.871 2.49134L173.918 3.70312L176.616 3.59981L176.569 2.38803L176.523 1.17625L173.825 1.27956L173.871 2.49134ZM176.569 2.38803L176.616 3.59981L179.314 3.4965L179.268 2.28472L179.221 1.07294L176.523 1.17625L176.569 2.38803ZM179.268 2.28472L179.314 3.4965C181.022 3.43109 182.716 3.5557 184.397 3.87049L184.621 2.67854L184.844 1.48659C182.985 1.13854 181.11 1.00061 179.221 1.07294L179.268 2.28472ZM184.621 2.67854L184.397 3.87049L187.052 4.36762L187.275 3.17567L187.499 1.98372L184.844 1.48659L184.621 2.67854ZM187.275 3.17567L187.052 4.36762L189.707 4.86475L189.93 3.6728L190.153 2.48085L187.499 1.98372L187.275 3.17567ZM189.93 3.6728L189.707 4.86475C191.318 5.16635 192.791 5.76525 194.136 6.66337L194.809 5.65478L195.483 4.64618C193.862 3.5645 192.082 2.84208 190.153 2.48085L189.93 3.6728ZM194.809 5.65478L194.136 6.66337L196.36 8.14822L197.034 7.13963L197.707 6.13103L195.483 4.64618L194.809 5.65478ZM197.034 7.13963L196.36 8.14822L198.585 9.63307L199.258 8.62448L199.931 7.61588L197.707 6.13103L197.034 7.13963ZM199.258 8.62448L198.585 9.63307C199.976 10.5614 201.21 11.6569 202.291 12.9214L203.212 12.1336L204.134 11.3457C202.908 9.91121 201.507 8.66733 199.931 7.61588L199.258 8.62448ZM203.212 12.1336L202.291 12.9214L204.02 14.9457L204.942 14.1578L205.864 13.37L204.134 11.3457L203.212 12.1336ZM204.942 14.1578L204.02 14.9457L205.75 16.9699L206.672 16.1821L207.594 15.3943L205.864 13.37L204.942 14.1578ZM206.672 16.1821L205.75 16.9699C206.792 18.1885 207.533 19.5621 207.979 21.1009L209.144 20.763L210.309 20.425C209.766 18.5551 208.859 16.8747 207.594 15.3943L206.672 16.1821ZM209.144 20.763L207.979 21.1009L208.721 23.6576L209.886 23.3196L211.051 22.9817L210.309 20.425L209.144 20.763ZM209.886 23.3196L208.721 23.6576L209.463 26.2142L210.628 25.8762L211.792 25.5383L211.051 22.9817L209.886 23.3196ZM210.628 25.8762L209.463 26.2142C209.922 27.7937 210.117 29.3978 210.051 31.0317L211.263 31.0806L212.475 31.1294C212.551 29.2331 212.323 27.3677 211.792 25.5383L210.628 25.8762ZM211.263 31.0806L210.051 31.0317L209.945 33.6794L211.156 33.7283L212.368 33.7772L212.475 31.1294L211.263 31.0806ZM211.156 33.7283L209.945 33.6794L209.838 36.3271L211.049 36.376L212.261 36.4249L212.368 33.7772L211.156 33.7283ZM211.049 36.376L209.838 36.3271C209.772 37.9687 209.46 39.5756 208.9 41.1516L210.043 41.5572L211.186 41.9629C211.826 40.1608 212.185 38.3135 212.261 36.4249L211.049 36.376ZM210.043 41.5572L208.9 41.1516L208.001 43.6851L209.144 44.0908L210.287 44.4965L211.186 41.9629L210.043 41.5572ZM209.144 44.0908L208.001 43.6851L207.102 46.2187L208.245 46.6244L209.387 47.03L210.287 44.4965L209.144 44.0908ZM208.245 46.6244L207.102 46.2187C206.561 47.7416 205.725 49.0844 204.584 50.2564L205.454 51.1021L206.323 51.9477C207.704 50.5276 208.729 48.8853 209.387 47.03L208.245 46.6244ZM205.454 51.1021L204.584 50.2564L202.693 52.2006L203.562 53.0462L204.431 53.8919L206.323 51.9477L205.454 51.1021ZM203.562 53.0462L202.693 52.2006L200.801 54.1447L201.67 54.9904L202.54 55.836L204.431 53.8919L203.562 53.0462ZM201.67 54.9904L200.801 54.1447C199.654 55.3239 198.333 56.2214 196.831 56.8444L197.296 57.9645L197.76 59.0846C199.569 58.3343 201.165 57.249 202.54 55.836L201.67 54.9904ZM197.296 57.9645L196.831 56.8444L194.348 57.8743L194.813 58.9944L195.278 60.1146L197.76 59.0846L197.296 57.9645ZM194.813 58.9944L194.348 57.8743L191.865 58.9043L192.33 60.0244L192.795 61.1445L195.278 60.1146L194.813 58.9944ZM192.33 60.0244L191.865 58.9043C190.327 59.5425 188.738 59.9255 187.093 60.0553L187.189 61.2642L187.284 62.4731C189.184 62.3231 191.023 61.8796 192.795 61.1445L192.33 60.0244ZM187.189 61.2642L187.093 60.0553L184.435 60.2651L184.53 61.474L184.626 62.6829L187.284 62.4731L187.189 61.2642ZM184.53 61.474L184.435 60.2651L181.777 60.4749L181.872 61.6838L181.968 62.8927L184.626 62.6829L184.53 61.474ZM181.872 61.6838L181.777 60.4749C180.027 60.613 178.263 60.7034 176.486 60.7463L176.516 61.9586L176.545 63.1709C178.365 63.127 180.173 63.0343 181.968 62.8927L181.872 61.6838ZM176.516 61.9586L176.486 60.7463L173.788 60.8113L173.817 62.0236L173.847 63.2359L176.545 63.1709L176.516 61.9586ZM173.817 62.0236L173.788 60.8113L171.09 60.8763L171.119 62.0886L171.148 63.3009L173.847 63.2359L173.817 62.0236ZM171.119 62.0886L171.09 60.8763C169.279 60.9199 167.468 60.991 165.657 61.0896L165.723 62.3004L165.789 63.5113C167.575 63.4141 169.362 63.344 171.148 63.3009L171.119 62.0886ZM165.723 62.3004L165.657 61.0896L162.959 61.2363L163.025 62.4472L163.091 63.6581L165.789 63.5113L165.723 62.3004ZM163.025 62.4472L162.959 61.2363L160.261 61.3831L160.327 62.594L160.392 63.8049L163.091 63.6581L163.025 62.4472ZM160.327 62.594L160.261 61.3831C158.494 61.4793 156.727 61.5059 154.96 61.4631L154.93 62.6754L154.901 63.8877C156.731 63.9321 158.562 63.9045 160.392 63.8049L160.327 62.594ZM154.93 62.6754L154.96 61.4631L152.261 61.3977L152.232 62.61L152.203 63.8223L154.901 63.8877L154.93 62.6754ZM152.232 62.61L152.261 61.3977L149.563 61.3323L149.534 62.5446L149.504 63.7569L152.203 63.8223L152.232 62.61ZM149.534 62.5446L149.563 61.3323C147.754 61.2885 145.945 61.2672 144.137 61.2686L144.137 62.4812L144.138 63.6939C145.927 63.6926 147.716 63.7136 149.504 63.7569L149.534 62.5446ZM144.137 62.4812L144.137 61.2686L141.438 61.2705L141.439 62.4832L141.44 63.6959L144.138 63.6939L144.137 62.4812ZM141.439 62.4832L141.438 61.2705L138.74 61.2725L138.741 62.4852L138.742 63.6978L141.44 63.6959L141.439 62.4832ZM138.741 62.4852L138.74 61.2725C136.932 61.2738 135.123 61.2966 133.315 61.3409L133.345 62.5532L133.374 63.7655C135.164 63.7217 136.953 63.6991 138.742 63.6978L138.741 62.4852ZM133.345 62.5532L133.315 61.3409L130.617 61.4069L130.647 62.6192L130.676 63.8315L133.374 63.7655L133.345 62.5532ZM130.647 62.6192L130.617 61.4069L127.919 61.4729L127.948 62.6852L127.978 63.8975L130.676 63.8315L130.647 62.6192ZM127.948 62.6852L127.919 61.4729C126.157 61.516 124.396 61.4775 122.634 61.3575L122.552 62.5673L122.47 63.7772C124.306 63.9023 126.142 63.9424 127.978 63.8975L127.948 62.6852ZM122.552 62.5673L122.634 61.3575L119.936 61.1736L119.854 62.3835L119.771 63.5933L122.47 63.7772L122.552 62.5673ZM119.854 62.3835L119.936 61.1736L117.238 60.9897L117.156 62.1996L117.073 63.4094L119.771 63.5933L119.854 62.3835ZM117.156 62.1996L117.238 60.9897C115.41 60.8651 113.583 60.8063 111.755 60.8132L111.759 62.0259L111.764 63.2386C113.534 63.2319 115.303 63.2888 117.073 63.4094L117.156 62.1996ZM111.759 62.0259L111.755 60.8132L109.056 60.8235L109.061 62.0361L109.066 63.2488L111.764 63.2386L111.759 62.0259ZM109.061 62.0361L109.056 60.8235L106.358 60.8337L106.363 62.0464L106.367 63.259L109.066 63.2488L109.061 62.0361ZM106.363 62.0464L106.358 60.8337C104.564 60.8405 102.77 60.8373 100.975 60.8241L100.967 62.0368L100.958 63.2494C102.761 63.2627 104.564 63.2659 106.367 63.259L106.363 62.0464ZM100.967 62.0368L100.975 60.8241L98.2772 60.8043L98.2683 62.017L98.2594 63.2296L100.958 63.2494L100.967 62.0368ZM98.2683 62.017L98.2772 60.8043L95.5791 60.7845L95.5702 61.9971L95.5612 63.2098L98.2594 63.2296L98.2683 62.017ZM95.5702 61.9971L95.5791 60.7845C93.7688 60.7712 91.9585 60.7836 90.1482 60.8218L90.1738 62.0342L90.1993 63.2466C91.9866 63.2089 93.7739 63.1966 95.5612 63.2098L95.5702 61.9971ZM90.1738 62.0342L90.1482 60.8218L87.4501 60.8786L87.4756 62.091L87.5012 63.3034L90.1993 63.2466L90.1738 62.0342ZM87.4756 62.091L87.4501 60.8786L84.7519 60.9355L84.7774 62.1479L84.803 63.3603L87.5012 63.3034L87.4756 62.091ZM84.7774 62.1479L84.7519 60.9355C82.9552 60.9733 81.1584 61.0066 79.3617 61.0352L79.3811 62.2477L79.4004 63.4602C81.2012 63.4315 83.0021 63.3982 84.803 63.3603L84.7774 62.1479ZM79.3811 62.2477L79.3617 61.0352L76.6636 61.0782L76.6829 62.2907L76.7022 63.5032L79.4004 63.4602L79.3811 62.2477ZM76.6829 62.2907L76.6636 61.0782L73.9654 61.1211L73.9847 62.3336L74.004 63.5462L76.7022 63.5032L76.6829 62.2907ZM73.9847 62.3336L73.9654 61.1211C72.1868 61.1495 70.4083 61.1333 68.6297 61.0725L68.5883 62.2845L68.547 63.4965C70.366 63.5586 72.185 63.5751 74.004 63.5462L73.9847 62.3336ZM68.5883 62.2845L68.6297 61.0725L65.9315 60.9804L65.8901 62.1924L65.8488 63.4043L68.547 63.4965L68.5883 62.2845ZM65.8901 62.1924L65.9315 60.9804L63.2333 60.8883L63.192 62.1003L63.1506 63.3122L65.8488 63.4043L65.8901 62.1924ZM63.192 62.1003L63.2333 60.8883C61.4221 60.8265 59.6109 60.7925 57.7996 60.7865L57.7956 61.9991L57.7915 63.2118C59.5779 63.2178 61.3642 63.2512 63.1506 63.3122L63.192 62.1003ZM57.7956 61.9991L57.7996 60.7865L55.1015 60.7775L55.0974 61.9901L55.0934 63.2028L57.7915 63.2118L57.7956 61.9991ZM55.0974 61.9901L55.1015 60.7775L52.4033 60.7685L52.3992 61.9811L52.3952 63.1938L55.0934 63.2028L55.0974 61.9901ZM52.3992 61.9811L52.4033 60.7685C50.5763 60.7624 48.7494 60.8199 46.9226 60.9411L47.0029 62.1511L47.0831 63.3611C48.8539 63.2436 50.6246 63.1879 52.3952 63.1938L52.3992 61.9811ZM47.0029 62.1511L46.9226 60.9411L44.2244 61.12L44.3047 62.33L44.3849 63.54L47.0831 63.3611L47.0029 62.1511ZM44.3047 62.33L44.2244 61.12L41.5262 61.299L41.6065 62.509L41.6867 63.719L44.3849 63.54L44.3047 62.33ZM41.6065 62.509L41.5262 61.299C39.7584 61.4162 37.9882 61.4655 36.2155 61.4468L36.2027 62.6594L36.1899 63.872C38.0247 63.8913 39.857 63.8404 41.6867 63.719L41.6065 62.509ZM36.2027 62.6594L36.2155 61.4468L33.5099 61.4182L33.4971 62.6308L33.4843 63.8434L36.1899 63.872L36.2027 62.6594ZM33.4971 62.6308L33.5099 61.4182L30.8043 61.3896L30.7915 62.6022L30.7787 63.8148L33.4843 63.8434L33.4971 62.6308ZM30.7915 62.6022L30.8043 61.3896C29.1319 61.3719 27.5152 61.0889 25.9489 60.5405L25.5482 61.6851L25.1475 62.8296C26.9648 63.4659 28.8436 63.7943 30.7787 63.8148L30.7915 62.6022ZM25.5482 61.6851L25.9489 60.5405L23.4112 59.652L23.0105 60.7966L22.6098 61.9411L25.1475 62.8296L25.5482 61.6851ZM23.0105 60.7966L23.4112 59.652L20.8736 58.7635L20.4728 59.9081L20.0721 61.0526L22.6098 61.9411L23.0105 60.7966ZM20.4728 59.9081L20.8736 58.7635C19.2886 58.2086 17.8235 57.4505 16.4749 56.4888L15.7708 57.4761L15.0667 58.4634C16.6039 59.5596 18.2735 60.4229 20.0721 61.0526L20.4728 59.9081ZM15.7708 57.4761L16.4749 56.4888L14.3106 54.9453L13.6065 55.9326L12.9024 56.9199L15.0667 58.4634L15.7708 57.4761ZM13.6065 55.9326L14.3106 54.9453L12.1463 53.4018L11.4422 54.3891L10.7381 55.3764L12.9024 56.9199L13.6065 55.9326ZM11.4422 54.3891L12.1463 53.4018C10.8115 52.4499 9.65653 51.3025 8.67881 49.955L7.69728 50.6671L6.71575 51.3793C7.84551 52.9364 9.18713 54.2703 10.7381 55.3764L11.4422 54.3891ZM7.69728 50.6671L8.67881 49.955L7.09821 47.7765L6.11668 48.4886L5.13515 49.2008L6.71575 51.3793L7.69728 50.6671ZM6.11668 48.4886L7.09821 47.7765L5.5176 45.598L4.53607 46.3102L3.55454 47.0223L5.13515 49.2008L6.11668 48.4886ZM4.53607 46.3102L5.5176 45.598C4.57585 44.3001 3.98291 42.8681 3.7323 41.2879L2.5346 41.4778L1.3369 41.6677C1.64745 43.626 2.38881 45.4157 3.55454 47.0223L4.53607 46.3102ZM2.5346 41.4778L3.7323 41.2879L3.31144 38.634L2.11374 38.8239L0.916042 39.0139L1.3369 41.6677L2.5346 41.4778ZM2.11374 38.8239L3.31144 38.634L2.89058 35.9801L1.69288 36.17L0.495181 36.36L0.916042 39.0139L2.11374 38.8239ZM1.69288 36.17L2.89058 35.9801C2.62659 34.3154 2.58313 32.6515 2.75971 30.9858L1.5538 30.858L0.347887 30.7302C0.148759 32.6086 0.198029 34.4862 0.495181 36.36L1.69288 36.17ZM1.5538 30.858L2.75971 30.9858L3.04148 28.3277L1.83557 28.1999L0.629662 28.072L0.347887 30.7302L1.5538 30.858ZM1.83557 28.1999L3.04148 28.3277L3.32326 25.6696L2.11735 25.5417L0.911438 25.4139L0.629662 28.072L1.83557 28.1999ZM2.11735 25.5417L3.32326 25.6696C3.49272 24.0709 3.98569 22.5859 4.80596 21.2031L3.763 20.5844L2.72003 19.9657C1.72181 21.6485 1.11768 23.4683 0.911438 25.4139L2.11735 25.5417ZM3.763 20.5844L4.80596 21.2031L6.16984 18.904L5.12687 18.2853L4.0839 17.6666L2.72003 19.9657L3.763 20.5844ZM5.12687 18.2853L6.16984 18.904L7.53371 16.6048L6.49074 15.9861L5.44777 15.3674L4.0839 17.6666L5.12687 18.2853ZM6.49074 15.9861L7.53371 16.6048C8.37376 15.1887 9.41669 13.9596 10.6654 12.9125L9.88619 11.9833L9.10698 11.0541C7.64691 12.2785 6.42621 13.718 5.44777 15.3674L6.49074 15.9861ZM9.88619 11.9833L10.6654 12.9125L12.697 11.2088L11.9178 10.2796L11.1386 9.35041L9.10698 11.0541L9.88619 11.9833ZM11.9178 10.2796L12.697 11.2088L14.7286 9.50511L13.9493 8.57592L13.1701 7.64674L11.1386 9.35041L11.9178 10.2796ZM13.9493 8.57592L14.7286 9.50511C15.9739 8.46078 17.3557 7.66609 18.8795 7.11735L18.4686 5.97641L18.0578 4.83547C16.2646 5.48119 14.6336 6.4195 13.1701 7.64674L13.9493 8.57592ZM18.4686 5.97641L18.8795 7.11735L21.3672 6.22151L20.9563 5.08057L20.5455 3.93962L18.0578 4.83547L18.4686 5.97641ZM20.9563 5.08057L21.3672 6.22151L23.8549 5.32567L23.444 4.18473L23.0332 3.04378L20.5455 3.93962L20.9563 5.08057ZM23.444 4.18473L23.8549 5.32567C25.5032 4.73209 26.661 4.3926 27.3742 4.26815L27.1657 3.07353L26.9572 1.87892C26.0251 2.0416 24.7018 2.44291 23.0332 3.04378L23.444 4.18473ZM27.1657 3.07353L27.3742 4.26815L28.6081 4.0528L28.3997 2.85819L28.1912 1.66358L26.9572 1.87892L27.1657 3.07353ZM28.3997 2.85819L28.6081 4.0528L29.8421 3.83745L29.6336 2.64284L29.4251 1.44823L28.1912 1.66358L28.3997 2.85819ZM29.6336 2.64284L29.8421 3.83745C30.5487 3.71413 31.7655 3.6483 33.5548 3.66442L33.5658 2.45181L33.5767 1.23919C31.7684 1.22289 30.3638 1.28442 29.4251 1.44823L29.6336 2.64284ZM33.5658 2.45181L33.5548 3.66442L36.253 3.68874L36.2639 2.47612L36.2749 1.26351L33.5767 1.23919L33.5658 2.45181Z" fill="#666666"/>
<rect x="7.3309" y="8.84908" width="198.307" height="47.08" rx="23.54" fill="#C6BDB4" stroke="#666666" stroke-width="1.42667"/>
<mask id="path-4-outside-1_1754_3884" maskUnits="userSpaceOnUse" x="21.4699" y="16.5583" width="168" height="39" fill="black">
<rect fill="white" x="21.4699" y="16.5583" width="168" height="39"/>
<path d="M23.8723 44.5583V18.593H29.3992L39.5257 35.3036V18.593H44.6446V44.5583H39.1177L28.9912 27.8478V44.5583H23.8723ZM56.7341 45.0406C55.0278 45.0406 53.4699 44.6016 52.0604 43.7237C50.6632 42.8459 49.5442 41.6651 48.7034 40.1813C47.875 38.6976 47.4608 37.0593 47.4608 35.2665C47.4608 33.9187 47.7019 32.6576 48.1841 31.4829C48.6663 30.296 49.3278 29.2573 50.1686 28.3671C51.0217 27.4645 52.0109 26.7597 53.1361 26.2528C54.2612 25.7458 55.4606 25.4924 56.7341 25.4924C58.2055 25.4924 59.547 25.8077 60.7587 26.4383C61.9828 27.0688 63.0153 27.9282 63.856 29.0162C64.7092 30.1043 65.315 31.3346 65.6736 32.707C66.0445 34.0795 66.1064 35.5076 65.8591 36.9913H52.9877C53.1484 37.5353 53.3957 38.0299 53.7296 38.475C54.0758 38.9078 54.4962 39.254 54.9907 39.5137C55.4977 39.7733 56.0788 39.9093 56.7341 39.9217C57.3771 39.934 57.9706 39.7857 58.5146 39.4766C59.0586 39.1675 59.5223 38.7532 59.9056 38.2339L65.1358 39.4395C64.3815 41.0839 63.2564 42.4317 61.7603 43.4826C60.2642 44.5213 58.5888 45.0406 56.7341 45.0406ZM52.8022 33.2078H60.6846C60.5238 32.5896 60.2518 32.0332 59.8685 31.5386C59.4852 31.044 59.0215 30.6545 58.4775 30.3701C57.9458 30.0858 57.3647 29.9436 56.7341 29.9436C56.1159 29.9436 55.5348 30.0858 54.9907 30.3701C54.4591 30.6545 54.0016 31.044 53.6183 31.5386C53.2473 32.0208 52.9753 32.5772 52.8022 33.2078ZM66.3387 44.5583L73.1268 35.2479L66.4129 26.0117H72.7187L76.2611 30.8709L79.8407 26.0117H86.1651L79.4326 35.2479L86.2207 44.5583H79.9148L76.2611 39.5878L72.6445 44.5583H66.3387ZM99.8789 31.1306H96.5405V44.5583H91.4216V31.1306H88.8622V26.0117H91.4216V20.188H96.5405V26.0117H99.8789V31.1306ZM121.283 45.0406C119.824 45.0406 118.427 44.8118 117.092 44.3543C115.769 43.8969 114.606 43.2354 113.605 42.3698C112.616 41.5043 111.905 40.4781 111.472 39.2911L116.276 37.5106C116.424 37.931 116.733 38.3267 117.203 38.6976C117.673 39.0562 118.26 39.3529 118.965 39.5878C119.67 39.8104 120.442 39.9217 121.283 39.9217C122.087 39.9217 122.841 39.8042 123.546 39.5693C124.263 39.322 124.838 38.982 125.271 38.5492C125.716 38.1165 125.938 37.6095 125.938 37.0284C125.938 36.4473 125.71 35.9651 125.252 35.5818C124.795 35.1985 124.207 34.8955 123.49 34.673C122.773 34.4381 122.037 34.2588 121.283 34.1351C119.416 33.8631 117.741 33.4242 116.257 32.8183C114.786 32.2001 113.623 31.3531 112.77 30.2774C111.917 29.1893 111.491 27.8107 111.491 26.1415C111.491 24.5341 111.942 23.1308 112.844 21.9314C113.759 20.7321 114.959 19.7986 116.442 19.1309C117.939 18.4632 119.552 18.1294 121.283 18.1294C122.717 18.1294 124.102 18.3581 125.438 18.8156C126.773 19.2731 127.935 19.9346 128.924 20.8001C129.926 21.6656 130.643 22.7042 131.076 23.9159L126.272 25.6593C126.124 25.2389 125.815 24.8494 125.345 24.4909C124.875 24.1323 124.288 23.8417 123.583 23.6192C122.878 23.3966 122.112 23.2853 121.283 23.2853C120.492 23.273 119.738 23.3904 119.02 23.6377C118.316 23.885 117.735 24.225 117.277 24.6578C116.832 25.0905 116.609 25.5851 116.609 26.1415C116.609 26.871 116.82 27.4212 117.24 27.7922C117.673 28.1631 118.242 28.4289 118.946 28.5897C119.651 28.7504 120.43 28.8926 121.283 29.0162C123.039 29.2759 124.659 29.7396 126.142 30.4072C127.626 31.0626 128.813 31.9404 129.703 33.0409C130.606 34.1289 131.057 35.4581 131.057 37.0284C131.057 38.6358 130.606 40.0391 129.703 41.2385C128.801 42.4378 127.608 43.3714 126.124 44.039C124.64 44.7067 123.027 45.0406 121.283 45.0406ZM144.605 31.1306H141.267V44.5583H136.148V31.1306H133.588V26.0117H136.148V20.188H141.267V26.0117H144.605V31.1306ZM155.568 45.0406C153.862 45.0406 152.304 44.6016 150.895 43.7237C149.497 42.8459 148.378 41.6651 147.538 40.1813C146.709 38.6976 146.295 37.0593 146.295 35.2665C146.295 33.9187 146.536 32.6576 147.018 31.4829C147.501 30.296 148.162 29.2573 149.003 28.3671C149.856 27.4645 150.845 26.7597 151.97 26.2528C153.096 25.7458 154.295 25.4924 155.568 25.4924C157.04 25.4924 158.381 25.8077 159.593 26.4383C160.817 27.0688 161.85 27.9282 162.69 29.0162C163.543 30.1043 164.149 31.3346 164.508 32.707C164.879 34.0795 164.941 35.5076 164.693 36.9913H151.822C151.983 37.5353 152.23 38.0299 152.564 38.475C152.91 38.9078 153.33 39.254 153.825 39.5137C154.332 39.7733 154.913 39.9093 155.568 39.9217C156.211 39.934 156.805 39.7857 157.349 39.4766C157.893 39.1675 158.357 38.7532 158.74 38.2339L163.97 39.4395C163.216 41.0839 162.091 42.4317 160.595 43.4826C159.098 44.5213 157.423 45.0406 155.568 45.0406ZM151.637 33.2078H159.519C159.358 32.5896 159.086 32.0332 158.703 31.5386C158.32 31.044 157.856 30.6545 157.312 30.3701C156.78 30.0858 156.199 29.9436 155.568 29.9436C154.95 29.9436 154.369 30.0858 153.825 30.3701C153.293 30.6545 152.836 31.044 152.453 31.5386C152.082 32.0208 151.81 32.5772 151.637 33.2078ZM172.628 53.8317H167.509V26.0117H172.628V28.0147C173.221 27.2852 173.926 26.6917 174.742 26.2342C175.558 25.7644 176.51 25.5295 177.598 25.5295C178.946 25.5295 180.207 25.7829 181.382 26.2899C182.569 26.7968 183.607 27.5016 184.497 28.4042C185.388 29.2944 186.086 30.3269 186.593 31.5015C187.1 32.6761 187.354 33.9373 187.354 35.285C187.354 36.6327 187.1 37.9001 186.593 39.0871C186.086 40.2741 185.388 41.3189 184.497 42.2215C183.607 43.1117 182.569 43.8103 181.382 44.3172C180.207 44.8242 178.946 45.0777 177.598 45.0777C176.51 45.0777 175.558 44.8427 174.742 44.3729C173.926 43.903 173.221 43.3095 172.628 42.5924V53.8317ZM177.524 30.4443C176.683 30.4443 175.923 30.6669 175.243 31.112C174.575 31.5448 174.043 32.1259 173.648 32.8554C173.264 33.5849 173.073 34.3948 173.073 35.285C173.073 36.1753 173.264 36.9913 173.648 37.7332C174.043 38.4627 174.575 39.0438 175.243 39.4766C175.923 39.9093 176.683 40.1257 177.524 40.1257C178.365 40.1257 179.131 39.9093 179.824 39.4766C180.528 39.0438 181.085 38.4627 181.493 37.7332C181.913 37.0037 182.123 36.1876 182.123 35.285C182.123 34.4071 181.919 33.6035 181.511 32.8739C181.103 32.1321 180.547 31.5448 179.842 31.112C179.15 30.6669 178.377 30.4443 177.524 30.4443Z"/>
</mask>
<path d="M23.8723 44.5583V18.593H29.3992L39.5257 35.3036V18.593H44.6446V44.5583H39.1177L28.9912 27.8478V44.5583H23.8723ZM56.7341 45.0406C55.0278 45.0406 53.4699 44.6016 52.0604 43.7237C50.6632 42.8459 49.5442 41.6651 48.7034 40.1813C47.875 38.6976 47.4608 37.0593 47.4608 35.2665C47.4608 33.9187 47.7019 32.6576 48.1841 31.4829C48.6663 30.296 49.3278 29.2573 50.1686 28.3671C51.0217 27.4645 52.0109 26.7597 53.1361 26.2528C54.2612 25.7458 55.4606 25.4924 56.7341 25.4924C58.2055 25.4924 59.547 25.8077 60.7587 26.4383C61.9828 27.0688 63.0153 27.9282 63.856 29.0162C64.7092 30.1043 65.315 31.3346 65.6736 32.707C66.0445 34.0795 66.1064 35.5076 65.8591 36.9913H52.9877C53.1484 37.5353 53.3957 38.0299 53.7296 38.475C54.0758 38.9078 54.4962 39.254 54.9907 39.5137C55.4977 39.7733 56.0788 39.9093 56.7341 39.9217C57.3771 39.934 57.9706 39.7857 58.5146 39.4766C59.0586 39.1675 59.5223 38.7532 59.9056 38.2339L65.1358 39.4395C64.3815 41.0839 63.2564 42.4317 61.7603 43.4826C60.2642 44.5213 58.5888 45.0406 56.7341 45.0406ZM52.8022 33.2078H60.6846C60.5238 32.5896 60.2518 32.0332 59.8685 31.5386C59.4852 31.044 59.0215 30.6545 58.4775 30.3701C57.9458 30.0858 57.3647 29.9436 56.7341 29.9436C56.1159 29.9436 55.5348 30.0858 54.9907 30.3701C54.4591 30.6545 54.0016 31.044 53.6183 31.5386C53.2473 32.0208 52.9753 32.5772 52.8022 33.2078ZM66.3387 44.5583L73.1268 35.2479L66.4129 26.0117H72.7187L76.2611 30.8709L79.8407 26.0117H86.1651L79.4326 35.2479L86.2207 44.5583H79.9148L76.2611 39.5878L72.6445 44.5583H66.3387ZM99.8789 31.1306H96.5405V44.5583H91.4216V31.1306H88.8622V26.0117H91.4216V20.188H96.5405V26.0117H99.8789V31.1306ZM121.283 45.0406C119.824 45.0406 118.427 44.8118 117.092 44.3543C115.769 43.8969 114.606 43.2354 113.605 42.3698C112.616 41.5043 111.905 40.4781 111.472 39.2911L116.276 37.5106C116.424 37.931 116.733 38.3267 117.203 38.6976C117.673 39.0562 118.26 39.3529 118.965 39.5878C119.67 39.8104 120.442 39.9217 121.283 39.9217C122.087 39.9217 122.841 39.8042 123.546 39.5693C124.263 39.322 124.838 38.982 125.271 38.5492C125.716 38.1165 125.938 37.6095 125.938 37.0284C125.938 36.4473 125.71 35.9651 125.252 35.5818C124.795 35.1985 124.207 34.8955 123.49 34.673C122.773 34.4381 122.037 34.2588 121.283 34.1351C119.416 33.8631 117.741 33.4242 116.257 32.8183C114.786 32.2001 113.623 31.3531 112.77 30.2774C111.917 29.1893 111.491 27.8107 111.491 26.1415C111.491 24.5341 111.942 23.1308 112.844 21.9314C113.759 20.7321 114.959 19.7986 116.442 19.1309C117.939 18.4632 119.552 18.1294 121.283 18.1294C122.717 18.1294 124.102 18.3581 125.438 18.8156C126.773 19.2731 127.935 19.9346 128.924 20.8001C129.926 21.6656 130.643 22.7042 131.076 23.9159L126.272 25.6593C126.124 25.2389 125.815 24.8494 125.345 24.4909C124.875 24.1323 124.288 23.8417 123.583 23.6192C122.878 23.3966 122.112 23.2853 121.283 23.2853C120.492 23.273 119.738 23.3904 119.02 23.6377C118.316 23.885 117.735 24.225 117.277 24.6578C116.832 25.0905 116.609 25.5851 116.609 26.1415C116.609 26.871 116.82 27.4212 117.24 27.7922C117.673 28.1631 118.242 28.4289 118.946 28.5897C119.651 28.7504 120.43 28.8926 121.283 29.0162C123.039 29.2759 124.659 29.7396 126.142 30.4072C127.626 31.0626 128.813 31.9404 129.703 33.0409C130.606 34.1289 131.057 35.4581 131.057 37.0284C131.057 38.6358 130.606 40.0391 129.703 41.2385C128.801 42.4378 127.608 43.3714 126.124 44.039C124.64 44.7067 123.027 45.0406 121.283 45.0406ZM144.605 31.1306H141.267V44.5583H136.148V31.1306H133.588V26.0117H136.148V20.188H141.267V26.0117H144.605V31.1306ZM155.568 45.0406C153.862 45.0406 152.304 44.6016 150.895 43.7237C149.497 42.8459 148.378 41.6651 147.538 40.1813C146.709 38.6976 146.295 37.0593 146.295 35.2665C146.295 33.9187 146.536 32.6576 147.018 31.4829C147.501 30.296 148.162 29.2573 149.003 28.3671C149.856 27.4645 150.845 26.7597 151.97 26.2528C153.096 25.7458 154.295 25.4924 155.568 25.4924C157.04 25.4924 158.381 25.8077 159.593 26.4383C160.817 27.0688 161.85 27.9282 162.69 29.0162C163.543 30.1043 164.149 31.3346 164.508 32.707C164.879 34.0795 164.941 35.5076 164.693 36.9913H151.822C151.983 37.5353 152.23 38.0299 152.564 38.475C152.91 38.9078 153.33 39.254 153.825 39.5137C154.332 39.7733 154.913 39.9093 155.568 39.9217C156.211 39.934 156.805 39.7857 157.349 39.4766C157.893 39.1675 158.357 38.7532 158.74 38.2339L163.97 39.4395C163.216 41.0839 162.091 42.4317 160.595 43.4826C159.098 44.5213 157.423 45.0406 155.568 45.0406ZM151.637 33.2078H159.519C159.358 32.5896 159.086 32.0332 158.703 31.5386C158.32 31.044 157.856 30.6545 157.312 30.3701C156.78 30.0858 156.199 29.9436 155.568 29.9436C154.95 29.9436 154.369 30.0858 153.825 30.3701C153.293 30.6545 152.836 31.044 152.453 31.5386C152.082 32.0208 151.81 32.5772 151.637 33.2078ZM172.628 53.8317H167.509V26.0117H172.628V28.0147C173.221 27.2852 173.926 26.6917 174.742 26.2342C175.558 25.7644 176.51 25.5295 177.598 25.5295C178.946 25.5295 180.207 25.7829 181.382 26.2899C182.569 26.7968 183.607 27.5016 184.497 28.4042C185.388 29.2944 186.086 30.3269 186.593 31.5015C187.1 32.6761 187.354 33.9373 187.354 35.285C187.354 36.6327 187.1 37.9001 186.593 39.0871C186.086 40.2741 185.388 41.3189 184.497 42.2215C183.607 43.1117 182.569 43.8103 181.382 44.3172C180.207 44.8242 178.946 45.0777 177.598 45.0777C176.51 45.0777 175.558 44.8427 174.742 44.3729C173.926 43.903 173.221 43.3095 172.628 42.5924V53.8317ZM177.524 30.4443C176.683 30.4443 175.923 30.6669 175.243 31.112C174.575 31.5448 174.043 32.1259 173.648 32.8554C173.264 33.5849 173.073 34.3948 173.073 35.285C173.073 36.1753 173.264 36.9913 173.648 37.7332C174.043 38.4627 174.575 39.0438 175.243 39.4766C175.923 39.9093 176.683 40.1257 177.524 40.1257C178.365 40.1257 179.131 39.9093 179.824 39.4766C180.528 39.0438 181.085 38.4627 181.493 37.7332C181.913 37.0037 182.123 36.1876 182.123 35.285C182.123 34.4071 181.919 33.6035 181.511 32.8739C181.103 32.1321 180.547 31.5448 179.842 31.112C179.15 30.6669 178.377 30.4443 177.524 30.4443Z" fill="white"/>
<path d="M23.8723 44.5583H22.4457V45.985H23.8723V44.5583ZM23.8723 18.593V17.1663H22.4457V18.593H23.8723ZM29.3992 18.593L30.6193 17.8536L30.2029 17.1663H29.3992V18.593ZM39.5257 35.3036L38.3056 36.0429L40.9524 40.4106V35.3036H39.5257ZM39.5257 18.593V17.1663H38.099V18.593H39.5257ZM44.6446 18.593H46.0713V17.1663H44.6446V18.593ZM44.6446 44.5583V45.985H46.0713V44.5583H44.6446ZM39.1177 44.5583L37.8976 45.2977L38.3141 45.985H39.1177V44.5583ZM28.9912 27.8478L30.2113 27.1084L27.5645 22.7407V27.8478H28.9912ZM28.9912 44.5583V45.985H30.4179V44.5583H28.9912ZM23.8723 44.5583H25.299V18.593H23.8723H22.4457V44.5583H23.8723ZM23.8723 18.593V20.0197H29.3992V18.593V17.1663H23.8723V18.593ZM29.3992 18.593L28.1791 19.3324L38.3056 36.0429L39.5257 35.3036L40.7458 34.5642L30.6193 17.8536L29.3992 18.593ZM39.5257 35.3036H40.9524V18.593H39.5257H38.099V35.3036H39.5257ZM39.5257 18.593V20.0197H44.6446V18.593V17.1663H39.5257V18.593ZM44.6446 18.593H43.2179V44.5583H44.6446H46.0713V18.593H44.6446ZM44.6446 44.5583V43.1317H39.1177V44.5583V45.985H44.6446V44.5583ZM39.1177 44.5583L40.3378 43.819L30.2113 27.1084L28.9912 27.8478L27.7711 28.5872L37.8976 45.2977L39.1177 44.5583ZM28.9912 27.8478H27.5645V44.5583H28.9912H30.4179V27.8478H28.9912ZM28.9912 44.5583V43.1317H23.8723V44.5583V45.985H28.9912V44.5583ZM52.0604 43.7238L51.3013 44.9318L51.3061 44.9348L52.0604 43.7238ZM48.7034 40.1813L47.4577 40.8768L47.4622 40.8847L48.7034 40.1813ZM48.1841 31.483L49.5039 32.0248L49.5059 32.0199L48.1841 31.483ZM50.1686 28.3671L49.1318 27.3871L49.1314 27.3875L50.1686 28.3671ZM53.1361 26.2528L52.55 24.952H52.55L53.1361 26.2528ZM60.7587 26.4383L60.1001 27.7038L60.1054 27.7065L60.7587 26.4383ZM63.856 29.0162L62.7271 29.8886L62.7333 29.8965L63.856 29.0162ZM65.6736 32.707L64.2932 33.0677L64.2964 33.0793L65.6736 32.707ZM65.8591 36.9913V38.418H67.0676L67.2663 37.2259L65.8591 36.9913ZM52.9877 36.9913V35.5646H51.0785L51.6195 37.3955L52.9877 36.9913ZM53.7296 38.475L52.5882 39.331L52.6016 39.3489L52.6155 39.3663L53.7296 38.475ZM54.9907 39.5137L54.3276 40.7768L54.3339 40.7802L54.3403 40.7835L54.9907 39.5137ZM56.7341 39.9217L56.7615 38.4953L56.761 38.4953L56.7341 39.9217ZM58.5146 39.4766L57.8098 38.2361V38.2361L58.5146 39.4766ZM59.9056 38.2339L60.226 36.8437L59.3137 36.6334L58.7577 37.3867L59.9056 38.2339ZM65.1358 39.4395L66.4325 40.0342L67.1625 38.4426L65.4562 38.0493L65.1358 39.4395ZM61.7603 43.4826L62.5739 44.6546L62.5803 44.6501L61.7603 43.4826ZM52.8022 33.2078L51.4265 32.8301L50.9311 34.6345H52.8022V33.2078ZM60.6846 33.2078V34.6345H62.5296L62.0653 32.8488L60.6846 33.2078ZM59.8685 31.5386L58.7408 32.4125V32.4125L59.8685 31.5386ZM58.4775 30.3701L57.8046 31.6282L57.8166 31.6345L58.4775 30.3701ZM54.9907 30.3701L54.3298 29.1057L54.3178 29.1121L54.9907 30.3701ZM53.6183 31.5386L52.4906 30.6646L52.4875 30.6687L53.6183 31.5386ZM56.7341 45.0406V43.6139C55.2867 43.6139 53.9913 43.2456 52.8146 42.5127L52.0604 43.7238L51.3061 44.9348C52.9485 45.9576 54.7689 46.4672 56.7341 46.4672V45.0406ZM52.0604 43.7238L52.8194 42.5157C51.6291 41.7679 50.673 40.7633 49.9446 39.478L48.7034 40.1813L47.4622 40.8847C48.4154 42.5668 49.6973 43.9239 51.3013 44.9318L52.0604 43.7238ZM48.7034 40.1813L49.9491 39.4858C49.2459 38.2265 48.8875 36.8297 48.8875 35.2665H47.4608H46.0341C46.0341 37.2889 46.5041 39.1687 47.4578 40.8768L48.7034 40.1813ZM47.4608 35.2665H48.8875C48.8875 34.093 49.0965 33.0171 49.5039 32.0248L48.1841 31.483L46.8643 30.9411C46.3073 32.2981 46.0341 33.7445 46.0341 35.2665H47.4608ZM48.1841 31.483L49.5059 32.0199C49.9246 30.9891 50.4921 30.1024 51.2058 29.3467L50.1686 28.3671L49.1314 27.3875C48.1636 28.4123 47.408 29.6028 46.8623 30.946L48.1841 31.483ZM50.1686 28.3671L51.2054 29.3471C51.9315 28.5789 52.7678 27.9835 53.7221 27.5535L53.1361 26.2528L52.55 24.952C51.254 25.536 50.112 26.3501 49.1318 27.3871L50.1686 28.3671ZM53.1361 26.2528L53.7221 27.5535C54.6571 27.1323 55.656 26.919 56.7341 26.919V25.4924V24.0657C55.2651 24.0657 53.8654 24.3594 52.55 24.952L53.1361 26.2528ZM56.7341 25.4924V26.919C57.9943 26.919 59.1073 27.1871 60.1001 27.7038L60.7587 26.4383L61.4173 25.1727C59.9867 24.4282 58.4167 24.0657 56.7341 24.0657V25.4924ZM60.7587 26.4383L60.1054 27.7065C61.1442 28.2417 62.0142 28.9659 62.7271 29.8886L63.856 29.0162L64.9849 28.1439C64.0163 26.8904 62.8215 25.896 61.4121 25.17L60.7587 26.4383ZM63.856 29.0162L62.7333 29.8965C63.4628 30.8268 63.9828 31.8792 64.2933 33.0677L65.6736 32.707L67.0539 32.3464C66.6473 30.7899 65.9556 29.3818 64.9787 28.1359L63.856 29.0162ZM65.6736 32.707L64.2964 33.0793C64.6108 34.2426 64.6674 35.4631 64.4518 36.7568L65.8591 36.9913L67.2663 37.2259C67.5453 35.552 67.4783 33.9164 67.0509 32.3348L65.6736 32.707ZM65.8591 36.9913V35.5646H52.9877V36.9913V38.418H65.8591V36.9913ZM52.9877 36.9913L51.6195 37.3955C51.8274 38.0992 52.1505 38.7474 52.5882 39.331L53.7296 38.475L54.8709 37.619C54.641 37.3125 54.4695 36.9715 54.3559 36.5871L52.9877 36.9913ZM53.7296 38.475L52.6155 39.3663C53.0857 39.954 53.6601 40.4264 54.3276 40.7768L54.9907 39.5137L55.6539 38.2505C55.3322 38.0816 55.0658 37.8615 54.8436 37.5838L53.7296 38.475ZM54.9907 39.5137L54.3403 40.7835C55.0677 41.156 55.8676 41.3323 56.7072 41.3481L56.7341 39.9217L56.761 38.4953C56.29 38.4864 55.9277 38.3906 55.6411 38.2439L54.9907 39.5137ZM56.7341 39.9217L56.7067 41.3481C57.5985 41.3652 58.446 41.1564 59.2194 40.717L58.5146 39.4766L57.8098 38.2361C57.4951 38.415 57.1556 38.5029 56.7615 38.4953L56.7341 39.9217ZM58.5146 39.4766L59.2194 40.717C59.9425 40.3061 60.5554 39.7559 61.0535 39.0812L59.9056 38.2339L58.7577 37.3867C58.4892 37.7506 58.1747 38.0288 57.8098 38.2361L58.5146 39.4766ZM59.9056 38.2339L59.5852 39.6242L64.8153 40.8297L65.1358 39.4395L65.4562 38.0493L60.226 36.8437L59.9056 38.2339ZM65.1358 39.4395L63.839 38.8447C63.1913 40.2569 62.2318 41.4079 60.9402 42.3152L61.7603 43.4826L62.5803 44.6501C64.281 43.4554 65.5718 41.911 66.4325 40.0342L65.1358 39.4395ZM61.7603 43.4826L60.9467 42.3107C59.6941 43.1802 58.3037 43.6139 56.7341 43.6139V45.0406V46.4672C58.8739 46.4672 60.8342 45.8623 62.5738 44.6546L61.7603 43.4826ZM52.8022 33.2078V34.6345H60.6846V33.2078V31.7811H52.8022V33.2078ZM60.6846 33.2078L62.0653 32.8488C61.857 32.0476 61.5003 31.3152 60.9962 30.6647L59.8685 31.5386L58.7408 32.4125C59.0033 32.7511 59.1906 33.1316 59.3038 33.5668L60.6846 33.2078ZM59.8685 31.5386L60.9962 30.6647C60.4897 30.0111 59.8679 29.4871 59.1384 29.1058L58.4775 30.3701L57.8166 31.6345C58.1752 31.822 58.4807 32.0769 58.7408 32.4125L59.8685 31.5386ZM58.4775 30.3701L59.1504 29.1121C58.4021 28.7119 57.5883 28.5169 56.7341 28.5169V29.9436V31.3702C57.1411 31.3702 57.4895 31.4596 57.8046 31.6282L58.4775 30.3701ZM56.7341 29.9436V28.5169C55.8874 28.5169 55.0793 28.714 54.3298 29.1058L54.9907 30.3701L55.6516 31.6345C55.9902 31.4575 56.3444 31.3702 56.7341 31.3702V29.9436ZM54.9907 30.3701L54.3178 29.1121C53.6025 29.4947 52.9921 30.0176 52.4906 30.6647L53.6183 31.5386L54.7459 32.4125C55.0111 32.0704 55.3156 31.8143 55.6636 31.6282L54.9907 30.3701ZM53.6183 31.5386L52.4875 30.6687C51.9955 31.3083 51.6448 32.0346 51.4265 32.8301L52.8022 33.2078L54.178 33.5855C54.3058 33.1198 54.4992 32.7333 54.7491 32.4084L53.6183 31.5386ZM66.3387 44.5583L65.1859 43.7179L63.5329 45.985H66.3387V44.5583ZM73.1268 35.2479L74.2796 36.0884L74.8914 35.2492L74.2808 34.4091L73.1268 35.2479ZM66.4129 26.0117V24.585H63.612L65.2589 26.8505L66.4129 26.0117ZM72.7187 26.0117L73.8716 25.1713L73.4442 24.585H72.7187V26.0117ZM76.2611 30.8709L75.1083 31.7113L76.2551 33.2845L77.4098 31.7171L76.2611 30.8709ZM79.8407 26.0117V24.585H79.1196L78.692 25.1655L79.8407 26.0117ZM86.1651 26.0117L87.318 26.852L88.9704 24.585H86.1651V26.0117ZM79.4326 35.2479L78.2797 34.4076L77.6671 35.248L78.2798 36.0884L79.4326 35.2479ZM86.2207 44.5583V45.985H89.0265L87.3735 43.7179L86.2207 44.5583ZM79.9148 44.5583L78.7653 45.4033L79.1929 45.985H79.9148V44.5583ZM76.2611 39.5878L77.4107 38.7429L76.2553 37.1711L75.1075 38.7485L76.2611 39.5878ZM72.6445 44.5583V45.985H73.3708L73.7982 45.3977L72.6445 44.5583ZM66.3387 44.5583L67.4915 45.3988L74.2796 36.0884L73.1268 35.2479L71.974 34.4074L65.1859 43.7179L66.3387 44.5583ZM73.1268 35.2479L74.2808 34.4091L67.5669 25.1728L66.4129 26.0117L65.2589 26.8505L71.9728 36.0868L73.1268 35.2479ZM66.4129 26.0117V27.4384H72.7187V26.0117V24.585H66.4129V26.0117ZM72.7187 26.0117L71.5659 26.8521L75.1083 31.7113L76.2611 30.8709L77.414 30.0305L73.8716 25.1713L72.7187 26.0117ZM76.2611 30.8709L77.4098 31.7171L80.9893 26.8578L79.8407 26.0117L78.692 25.1655L75.1125 30.0248L76.2611 30.8709ZM79.8407 26.0117V27.4384H86.1651V26.0117V24.585H79.8407V26.0117ZM86.1651 26.0117L85.0122 25.1713L78.2797 34.4076L79.4326 35.2479L80.5855 36.0883L87.318 26.852L86.1651 26.0117ZM79.4326 35.2479L78.2798 36.0884L85.0679 45.3988L86.2207 44.5583L87.3735 43.7179L80.5854 34.4074L79.4326 35.2479ZM86.2207 44.5583V43.1317H79.9148V44.5583V45.985H86.2207V44.5583ZM79.9148 44.5583L81.0644 43.7134L77.4107 38.7429L76.2611 39.5878L75.1116 40.4328L78.7653 45.4033L79.9148 44.5583ZM76.2611 39.5878L75.1075 38.7485L71.4909 43.719L72.6445 44.5583L73.7982 45.3977L77.4148 40.4272L76.2611 39.5878ZM72.6445 44.5583V43.1317H66.3387V44.5583V45.985H72.6445V44.5583ZM99.8789 31.1306V32.5572H101.306V31.1306H99.8789ZM96.5405 31.1306V29.7039H95.1138V31.1306H96.5405ZM96.5405 44.5583V45.985H97.9671V44.5583H96.5405ZM91.4216 44.5583H89.9949V45.985H91.4216V44.5583ZM91.4216 31.1306H92.8483V29.7039H91.4216V31.1306ZM88.8622 31.1306H87.4355V32.5572H88.8622V31.1306ZM88.8622 26.0117V24.585H87.4355V26.0117H88.8622ZM91.4216 26.0117V27.4384H92.8483V26.0117H91.4216ZM91.4216 20.188V18.7614H89.9949V20.188H91.4216ZM96.5405 20.188H97.9671V18.7614H96.5405V20.188ZM96.5405 26.0117H95.1138V27.4384H96.5405V26.0117ZM99.8789 26.0117H101.306V24.585H99.8789V26.0117ZM99.8789 31.1306V29.7039H96.5405V31.1306V32.5572H99.8789V31.1306ZM96.5405 31.1306H95.1138V44.5583H96.5405H97.9671V31.1306H96.5405ZM96.5405 44.5583V43.1317H91.4216V44.5583V45.985H96.5405V44.5583ZM91.4216 44.5583H92.8483V31.1306H91.4216H89.9949V44.5583H91.4216ZM91.4216 31.1306V29.7039H88.8622V31.1306V32.5572H91.4216V31.1306ZM88.8622 31.1306H90.2888V26.0117H88.8622H87.4355V31.1306H88.8622ZM88.8622 26.0117V27.4384H91.4216V26.0117V24.585H88.8622V26.0117ZM91.4216 26.0117H92.8483V20.188H91.4216H89.9949V26.0117H91.4216ZM91.4216 20.188V21.6147H96.5405V20.188V18.7614H91.4216V20.188ZM96.5405 20.188H95.1138V26.0117H96.5405H97.9671V20.188H96.5405ZM96.5405 26.0117V27.4384H99.8789V26.0117V24.585H96.5405V26.0117ZM99.8789 26.0117H98.4522V31.1306H99.8789H101.306V26.0117H99.8789ZM117.092 44.3543L116.625 45.7027L116.629 45.704L117.092 44.3543ZM113.605 42.3698L112.665 43.4435L112.672 43.4493L113.605 42.3698ZM111.472 39.2911L110.976 37.9534L109.646 38.4466L110.132 39.7798L111.472 39.2911ZM116.276 37.5106L117.621 37.0358L117.139 35.6692L115.78 36.1729L116.276 37.5106ZM117.203 38.6976L116.319 39.8174L116.328 39.8246L116.337 39.8317L117.203 38.6976ZM118.965 39.5878L118.514 40.9413L118.524 40.9449L118.535 40.9483L118.965 39.5878ZM123.546 39.5693L123.997 40.9228L124.004 40.9204L124.011 40.918L123.546 39.5693ZM125.271 38.5492L124.276 37.5263L124.269 37.5333L124.262 37.5404L125.271 38.5492ZM125.252 35.5818L124.336 36.6753L125.252 35.5818ZM123.49 34.673L123.046 36.0287L123.057 36.0322L123.067 36.0355L123.49 34.673ZM121.283 34.1351L121.514 32.7272L121.501 32.7252L121.489 32.7234L121.283 34.1351ZM116.257 32.8183L115.704 34.1336L115.711 34.1364L115.718 34.1391L116.257 32.8183ZM112.77 30.2774L111.648 31.1577L111.652 31.1639L112.77 30.2774ZM112.844 21.9314L111.71 21.0661L111.705 21.0735L112.844 21.9314ZM116.442 19.1309L115.861 17.828L115.857 17.8299L116.442 19.1309ZM125.438 18.8156L124.975 20.1652L125.438 18.8156ZM128.924 20.8001L127.985 21.8738L127.992 21.8795L128.924 20.8001ZM131.076 23.9159L131.563 25.257L132.897 24.7728L132.419 23.4361L131.076 23.9159ZM126.272 25.6593L124.927 26.1341L125.406 27.4914L126.759 27.0004L126.272 25.6593ZM125.345 24.4909L124.479 25.625V25.625L125.345 24.4909ZM123.583 23.6192L123.153 24.9796V24.9796L123.583 23.6192ZM121.283 23.2853L121.261 24.7118L121.272 24.712H121.283V23.2853ZM119.02 23.6377L118.555 22.289L118.548 22.2915L119.02 23.6377ZM117.277 24.6578L116.297 23.6213L116.29 23.6281L116.283 23.6349L117.277 24.6578ZM117.24 27.7922L116.296 28.8619L116.304 28.8687L116.312 28.8754L117.24 27.7922ZM118.946 28.5897L119.264 27.1987H119.264L118.946 28.5897ZM121.283 29.0162L121.492 27.6049L121.488 27.6043L121.283 29.0162ZM126.142 30.4072L125.557 31.7083L125.566 31.7123L126.142 30.4072ZM129.703 33.0409L128.594 33.9382L128.6 33.945L128.605 33.9517L129.703 33.0409ZM129.703 41.2385L130.843 42.0964L129.703 41.2385ZM126.124 44.039L126.709 45.34L126.124 44.039ZM121.283 45.0406V43.6139C119.976 43.6139 118.736 43.4095 117.554 43.0047L117.092 44.3543L116.629 45.704C118.118 46.2142 119.672 46.4672 121.283 46.4672V45.0406ZM117.092 44.3543L117.558 43.006C116.396 42.6043 115.394 42.0308 114.538 41.2904L113.605 42.3698L112.672 43.4493C113.818 44.4399 115.141 45.1894 116.625 45.7027L117.092 44.3543ZM113.605 42.3698L114.544 41.2962C113.728 40.5822 113.159 39.7545 112.812 38.8024L111.472 39.2911L110.132 39.7798C110.65 41.2017 111.503 42.4265 112.665 43.4435L113.605 42.3698ZM111.472 39.2911L111.968 40.6288L116.771 38.8483L116.276 37.5106L115.78 36.1729L110.976 37.9534L111.472 39.2911ZM116.276 37.5106L114.93 37.9854C115.194 38.7333 115.708 39.3351 116.319 39.8174L117.203 38.6976L118.087 37.5778C117.758 37.3183 117.654 37.1287 117.621 37.0358L116.276 37.5106ZM117.203 38.6976L116.337 39.8317C116.96 40.3067 117.696 40.6688 118.514 40.9413L118.965 39.5878L119.416 38.2344C118.824 38.037 118.386 37.8057 118.068 37.5635L117.203 38.6976ZM118.965 39.5878L118.535 40.9483C119.397 41.2203 120.316 41.3484 121.283 41.3484V39.9217V38.495C120.568 38.495 119.943 38.4005 119.394 38.2274L118.965 39.5878ZM121.283 39.9217V41.3484C122.228 41.3484 123.135 41.21 123.997 40.9228L123.546 39.5693L123.095 38.2158C122.547 38.3985 121.946 38.495 121.283 38.495V39.9217ZM123.546 39.5693L124.011 40.918C124.885 40.6167 125.661 40.1761 126.28 39.558L125.271 38.5492L124.262 37.5404C124.014 37.7879 123.641 38.0273 123.081 38.2206L123.546 39.5693ZM125.271 38.5492L126.265 39.5721C126.966 38.8912 127.365 38.0232 127.365 37.0284H125.938H124.512C124.512 37.1959 124.466 37.3418 124.276 37.5263L125.271 38.5492ZM125.938 37.0284H127.365C127.365 36.0122 126.939 35.1341 126.168 34.4882L125.252 35.5818L124.336 36.6753C124.48 36.796 124.512 36.8823 124.512 37.0284H125.938ZM125.252 35.5818L126.168 34.4882C125.534 33.9564 124.766 33.5751 123.913 33.3104L123.49 34.673L123.067 36.0355C123.649 36.216 124.056 36.4405 124.336 36.6753L125.252 35.5818ZM123.49 34.673L123.934 33.3172C123.147 33.0592 122.34 32.8626 121.514 32.7272L121.283 34.1351L121.052 35.543C121.735 35.6549 122.4 35.8169 123.046 36.0287L123.49 34.673ZM121.283 34.1351L121.489 32.7234C119.717 32.4652 118.156 32.0527 116.796 31.4975L116.257 32.8183L115.718 34.1391C117.325 34.7956 119.116 35.261 121.077 35.5469L121.283 34.1351ZM116.257 32.8183L116.81 31.503C115.524 30.9626 114.569 30.2498 113.888 29.3909L112.77 30.2774L111.652 31.1639C112.678 32.4564 114.048 33.4375 115.704 34.1336L116.257 32.8183ZM112.77 30.2774L113.893 29.3971C113.275 28.6091 112.917 27.5598 112.917 26.1415H111.491H110.064C110.064 28.0616 110.559 29.7696 111.648 31.1577L112.77 30.2774ZM111.491 26.1415H112.917C112.917 24.8203 113.281 23.7234 113.984 22.7893L112.844 21.9314L111.705 21.0735C110.602 22.5382 110.064 24.248 110.064 26.1415H111.491ZM112.844 21.9314L113.979 22.7967C114.739 21.8006 115.743 21.0101 117.028 20.4319L116.442 19.1309L115.857 17.8299C114.174 18.587 112.78 19.6635 111.71 21.0661L112.844 21.9314ZM116.442 19.1309L117.024 20.4337C118.327 19.8522 119.741 19.556 121.283 19.556V18.1294V16.7027C119.363 16.7027 117.55 17.0741 115.861 17.8281L116.442 19.1309ZM121.283 18.1294V19.556C122.563 19.556 123.791 19.7596 124.975 20.1652L125.438 18.8156L125.9 17.4659C124.413 16.9566 122.872 16.7027 121.283 16.7027V18.1294ZM125.438 18.8156L124.975 20.1652C126.148 20.5671 127.145 21.1392 127.985 21.8737L128.924 20.8001L129.864 19.7264C128.725 18.73 127.398 17.979 125.9 17.4659L125.438 18.8156ZM128.924 20.8001L127.992 21.8795C128.812 22.5888 129.385 23.4229 129.732 24.3958L131.076 23.9159L132.419 23.4361C131.901 21.9855 131.04 20.7424 129.857 19.7206L128.924 20.8001ZM131.076 23.9159L130.589 22.5748L125.785 24.3182L126.272 25.6593L126.759 27.0004L131.563 25.257L131.076 23.9159ZM126.272 25.6593L127.618 25.1845C127.351 24.4297 126.83 23.8299 126.21 23.3567L125.345 24.4909L124.479 25.625C124.799 25.8689 124.897 26.0482 124.927 26.1341L126.272 25.6593ZM125.345 24.4909L126.21 23.3567C125.581 22.8766 124.837 22.519 124.013 22.2587L123.583 23.6192L123.153 24.9796C123.739 25.1644 124.169 25.388 124.479 25.625L125.345 24.4909ZM123.583 23.6192L124.013 22.2587C123.153 21.9873 122.24 21.8587 121.283 21.8587V23.2853V24.712C121.983 24.712 122.603 24.8059 123.153 24.9796L123.583 23.6192ZM121.283 23.2853L121.305 21.8588C120.356 21.844 119.436 21.9853 118.555 22.289L119.02 23.6377L119.486 24.9864C120.039 24.7955 120.628 24.7019 121.261 24.7118L121.283 23.2853ZM119.02 23.6377L118.548 22.2915C117.689 22.593 116.924 23.0276 116.297 23.6213L117.277 24.6578L118.257 25.6942C118.545 25.4225 118.943 25.177 119.493 24.9839L119.02 23.6377ZM117.277 24.6578L116.283 23.6349C115.596 24.3021 115.183 25.1533 115.183 26.1415H116.609H118.036C118.036 26.0169 118.068 25.879 118.272 25.6807L117.277 24.6578ZM116.609 26.1415H115.183C115.183 27.1493 115.483 28.1441 116.296 28.8619L117.24 27.7922L118.184 26.7224C118.157 26.6984 118.036 26.5928 118.036 26.1415H116.609ZM117.24 27.7922L116.312 28.8754C116.961 29.432 117.758 29.7819 118.629 29.9806L118.946 28.5897L119.264 27.1987C118.725 27.076 118.385 26.8942 118.168 26.709L117.24 27.7922ZM118.946 28.5897L118.629 29.9806C119.377 30.1513 120.195 30.3 121.079 30.4282L121.283 29.0162L121.488 27.6043C120.666 27.4852 119.925 27.3495 119.264 27.1987L118.946 28.5897ZM121.283 29.0162L121.074 30.4276C122.712 30.6697 124.203 31.0992 125.557 31.7083L126.142 30.4072L126.728 29.1062C125.114 28.3799 123.366 27.8821 121.492 27.6049L121.283 29.0162ZM126.142 30.4072L125.566 31.7123C126.873 32.2894 127.866 33.0382 128.594 33.9382L129.703 33.0409L130.813 32.1436C129.76 30.8426 128.38 29.8357 126.719 29.1022L126.142 30.4072ZM129.703 33.0409L128.605 33.9517C129.272 34.7551 129.631 35.7515 129.631 37.0284H131.057H132.484C132.484 35.1647 131.94 33.5028 130.801 32.13L129.703 33.0409ZM131.057 37.0284H129.631C129.631 38.3496 129.266 39.4466 128.563 40.3806L129.703 41.2385L130.843 42.0964C131.946 40.6317 132.484 38.9219 132.484 37.0284H131.057ZM129.703 41.2385L128.563 40.3806C127.817 41.372 126.822 42.1605 125.538 42.738L126.124 44.039L126.709 45.34C128.393 44.5822 129.784 43.5037 130.843 42.0964L129.703 41.2385ZM126.124 44.039L125.538 42.738C124.252 43.3171 122.839 43.6139 121.283 43.6139V45.0406V46.4672C123.214 46.4672 125.029 46.0964 126.709 45.34L126.124 44.039ZM144.605 31.1306V32.5572H146.032V31.1306H144.605ZM141.267 31.1306V29.7039H139.84V31.1306H141.267ZM141.267 44.5583V45.985H142.693V44.5583H141.267ZM136.148 44.5583H134.721V45.985H136.148V44.5583ZM136.148 31.1306H137.574V29.7039H136.148V31.1306ZM133.588 31.1306H132.162V32.5572H133.588V31.1306ZM133.588 26.0117V24.585H132.162V26.0117H133.588ZM136.148 26.0117V27.4384H137.574V26.0117H136.148ZM136.148 20.188V18.7614H134.721V20.188H136.148ZM141.267 20.188H142.693V18.7614H141.267V20.188ZM141.267 26.0117H139.84V27.4384H141.267V26.0117ZM144.605 26.0117H146.032V24.585H144.605V26.0117ZM144.605 31.1306V29.7039H141.267V31.1306V32.5572H144.605V31.1306ZM141.267 31.1306H139.84V44.5583H141.267H142.693V31.1306H141.267ZM141.267 44.5583V43.1317H136.148V44.5583V45.985H141.267V44.5583ZM136.148 44.5583H137.574V31.1306H136.148H134.721V44.5583H136.148ZM136.148 31.1306V29.7039H133.588V31.1306V32.5572H136.148V31.1306ZM133.588 31.1306H135.015V26.0117H133.588H132.162V31.1306H133.588ZM133.588 26.0117V27.4384H136.148V26.0117V24.585H133.588V26.0117ZM136.148 26.0117H137.574V20.188H136.148H134.721V26.0117H136.148ZM136.148 20.188V21.6147H141.267V20.188V18.7614H136.148V20.188ZM141.267 20.188H139.84V26.0117H141.267H142.693V20.188H141.267ZM141.267 26.0117V27.4384H144.605V26.0117V24.585H141.267V26.0117ZM144.605 26.0117H143.178V31.1306H144.605H146.032V26.0117H144.605ZM150.895 43.7238L150.136 44.9318L150.14 44.9348L150.895 43.7238ZM147.538 40.1813L146.292 40.8768L146.296 40.8847L147.538 40.1813ZM147.018 31.483L148.338 32.0248L148.34 32.0199L147.018 31.483ZM149.003 28.3671L147.966 27.3871L147.966 27.3875L149.003 28.3671ZM151.97 26.2528L151.384 24.952L151.97 26.2528ZM159.593 26.4383L158.934 27.7038L158.94 27.7065L159.593 26.4383ZM162.69 29.0162L161.561 29.8886L161.568 29.8965L162.69 29.0162ZM164.508 32.707L163.128 33.0677L163.131 33.0793L164.508 32.707ZM164.693 36.9913V38.418H165.902L166.101 37.2259L164.693 36.9913ZM151.822 36.9913V35.5646H149.913L150.454 37.3955L151.822 36.9913ZM152.564 38.475L151.423 39.331L151.436 39.3489L151.45 39.3663L152.564 38.475ZM153.825 39.5137L153.162 40.7768L153.168 40.7802L153.175 40.7835L153.825 39.5137ZM155.568 39.9217L155.596 38.4953L155.595 38.4953L155.568 39.9217ZM157.349 39.4766L156.644 38.2361V38.2361L157.349 39.4766ZM158.74 38.2339L159.06 36.8437L158.148 36.6334L157.592 37.3867L158.74 38.2339ZM163.97 39.4395L165.267 40.0342L165.997 38.4426L164.29 38.0493L163.97 39.4395ZM160.595 43.4826L161.408 44.6546L161.415 44.6501L160.595 43.4826ZM151.637 33.2078L150.261 32.8301L149.765 34.6345H151.637V33.2078ZM159.519 33.2078V34.6345H161.364L160.9 32.8488L159.519 33.2078ZM158.703 31.5386L157.575 32.4125V32.4125L158.703 31.5386ZM157.312 30.3701L156.639 31.6282L156.651 31.6345L157.312 30.3701ZM153.825 30.3701L153.164 29.1057L153.152 29.1121L153.825 30.3701ZM152.453 31.5386L151.325 30.6646L151.322 30.6687L152.453 31.5386ZM155.568 45.0406V43.6139C154.121 43.6139 152.826 43.2456 151.649 42.5127L150.895 43.7238L150.14 44.9348C151.783 45.9576 153.603 46.4672 155.568 46.4672V45.0406ZM150.895 43.7238L151.654 42.5157C150.463 41.7679 149.507 40.7633 148.779 39.478L147.538 40.1813L146.296 40.8847C147.25 42.5668 148.532 43.9239 150.136 44.9318L150.895 43.7238ZM147.538 40.1813L148.783 39.4858C148.08 38.2265 147.722 36.8297 147.722 35.2665H146.295H144.868C144.868 37.2889 145.338 39.1687 146.292 40.8768L147.538 40.1813ZM146.295 35.2665H147.722C147.722 34.093 147.931 33.0171 148.338 32.0248L147.018 31.483L145.699 30.9411C145.142 32.2981 144.868 33.7445 144.868 35.2665H146.295ZM147.018 31.483L148.34 32.0199C148.759 30.9891 149.326 30.1024 150.04 29.3467L149.003 28.3671L147.966 27.3875C146.998 28.4123 146.242 29.6028 145.697 30.946L147.018 31.483ZM149.003 28.3671L150.04 29.3471C150.766 28.5789 151.602 27.9835 152.556 27.5535L151.97 26.2528L151.384 24.952C150.088 25.536 148.946 26.3501 147.966 27.3871L149.003 28.3671ZM151.97 26.2528L152.556 27.5535C153.491 27.1323 154.49 26.919 155.568 26.919V25.4924V24.0657C154.099 24.0657 152.7 24.3594 151.384 24.952L151.97 26.2528ZM155.568 25.4924V26.919C156.829 26.919 157.942 27.1871 158.934 27.7038L159.593 26.4383L160.252 25.1727C158.821 24.4282 157.251 24.0657 155.568 24.0657V25.4924ZM159.593 26.4383L158.94 27.7065C159.978 28.2417 160.848 28.9659 161.561 29.8886L162.69 29.0162L163.819 28.1439C162.851 26.8904 161.656 25.896 160.246 25.17L159.593 26.4383ZM162.69 29.0162L161.568 29.8965C162.297 30.8268 162.817 31.8792 163.128 33.0677L164.508 32.707L165.888 32.3464C165.482 30.7899 164.79 29.3818 163.813 28.1359L162.69 29.0162ZM164.508 32.707L163.131 33.0793C163.445 34.2426 163.502 35.4631 163.286 36.7568L164.693 36.9913L166.101 37.2259C166.38 35.552 166.313 33.9164 165.885 32.3348L164.508 32.707ZM164.693 36.9913V35.5646H151.822V36.9913V38.418H164.693V36.9913ZM151.822 36.9913L150.454 37.3955C150.662 38.0992 150.985 38.7474 151.423 39.331L152.564 38.475L153.705 37.619C153.475 37.3125 153.304 36.9715 153.19 36.5871L151.822 36.9913ZM152.564 38.475L151.45 39.3663C151.92 39.954 152.494 40.4264 153.162 40.7768L153.825 39.5137L154.488 38.2505C154.167 38.0816 153.9 37.8615 153.678 37.5838L152.564 38.475ZM153.825 39.5137L153.175 40.7835C153.902 41.156 154.702 41.3323 155.542 41.3481L155.568 39.9217L155.595 38.4953C155.124 38.4864 154.762 38.3906 154.475 38.2439L153.825 39.5137ZM155.568 39.9217L155.541 41.3481C156.433 41.3652 157.28 41.1564 158.054 40.717L157.349 39.4766L156.644 38.2361C156.329 38.415 155.99 38.5029 155.596 38.4953L155.568 39.9217ZM157.349 39.4766L158.054 40.717C158.777 40.3061 159.39 39.7559 159.888 39.0812L158.74 38.2339L157.592 37.3867C157.323 37.7506 157.009 38.0288 156.644 38.2361L157.349 39.4766ZM158.74 38.2339L158.419 39.6242L163.65 40.8297L163.97 39.4395L164.29 38.0493L159.06 36.8437L158.74 38.2339ZM163.97 39.4395L162.673 38.8447C162.026 40.2569 161.066 41.4079 159.774 42.3152L160.595 43.4826L161.415 44.6501C163.115 43.4554 164.406 41.911 165.267 40.0342L163.97 39.4395ZM160.595 43.4826L159.781 42.3107C158.528 43.1802 157.138 43.6139 155.568 43.6139V45.0406V46.4672C157.708 46.4672 159.669 45.8623 161.408 44.6546L160.595 43.4826ZM151.637 33.2078V34.6345H159.519V33.2078V31.7811H151.637V33.2078ZM159.519 33.2078L160.9 32.8488C160.691 32.0476 160.335 31.3152 159.83 30.6647L158.703 31.5386L157.575 32.4125C157.838 32.7511 158.025 33.1316 158.138 33.5668L159.519 33.2078ZM158.703 31.5386L159.83 30.6647C159.324 30.0111 158.702 29.4871 157.973 29.1058L157.312 30.3701L156.651 31.6345C157.009 31.822 157.315 32.0769 157.575 32.4125L158.703 31.5386ZM157.312 30.3701L157.985 29.1121C157.236 28.7119 156.423 28.5169 155.568 28.5169V29.9436V31.3702C155.975 31.3702 156.324 31.4596 156.639 31.6282L157.312 30.3701ZM155.568 29.9436V28.5169C154.722 28.5169 153.914 28.714 153.164 29.1058L153.825 30.3701L154.486 31.6345C154.824 31.4575 155.179 31.3702 155.568 31.3702V29.9436ZM153.825 30.3701L153.152 29.1121C152.437 29.4947 151.826 30.0176 151.325 30.6647L152.453 31.5386L153.58 32.4125C153.845 32.0704 154.15 31.8143 154.498 31.6282L153.825 30.3701ZM152.453 31.5386L151.322 30.6687C150.83 31.3083 150.479 32.0346 150.261 32.8301L151.637 33.2078L153.012 33.5855C153.14 33.1198 153.333 32.7333 153.583 32.4084L152.453 31.5386ZM172.628 53.8317V55.2584H174.054V53.8317H172.628ZM167.509 53.8317H166.082V55.2584H167.509V53.8317ZM167.509 26.0117V24.585H166.082V26.0117H167.509ZM172.628 26.0117H174.054V24.585H172.628V26.0117ZM172.628 28.0147H171.201V32.029L173.734 28.9151L172.628 28.0147ZM174.742 26.2342L175.44 27.4787L175.447 27.4747L175.454 27.4706L174.742 26.2342ZM181.382 26.2899L180.816 27.5998L180.821 27.6019L181.382 26.2899ZM184.497 28.4042L183.482 29.4061L183.489 29.413L184.497 28.4042ZM186.593 31.5015L187.903 30.9362L186.593 31.5015ZM186.593 39.0871L187.905 39.6474L186.593 39.0871ZM184.497 42.2215L185.506 43.2303L185.513 43.2233L184.497 42.2215ZM181.382 44.3172L180.821 43.0052L180.816 43.0074L181.382 44.3172ZM174.742 44.3729L175.454 43.1365L174.742 44.3729ZM172.628 42.5924L173.727 41.6828L171.201 38.6308V42.5924H172.628ZM175.243 31.112L176.019 32.3092L176.024 32.3057L175.243 31.112ZM173.648 32.8554L172.394 32.1752L172.389 32.1835L172.385 32.1918L173.648 32.8554ZM173.648 37.7332L172.38 38.388L172.387 38.4008L172.394 38.4134L173.648 37.7332ZM175.243 39.4766L174.467 40.6738L174.477 40.6802L175.243 39.4766ZM179.824 39.4766L179.077 38.2608L179.068 38.2668L179.824 39.4766ZM181.493 37.7332L180.257 37.0208L180.252 37.0288L180.248 37.0367L181.493 37.7332ZM181.511 32.8739L180.261 33.5615L180.266 33.5704L181.511 32.8739ZM179.842 31.112L179.071 32.3121L179.083 32.3201L179.096 32.3278L179.842 31.112ZM172.628 53.8317V52.405H167.509V53.8317V55.2584H172.628V53.8317ZM167.509 53.8317H168.935V26.0117H167.509H166.082V53.8317H167.509ZM167.509 26.0117V27.4384H172.628V26.0117V24.585H167.509V26.0117ZM172.628 26.0117H171.201V28.0147H172.628H174.054V26.0117H172.628ZM172.628 28.0147L173.734 28.9151C174.215 28.3243 174.781 27.8478 175.44 27.4787L174.742 26.2342L174.044 24.9898C173.071 25.5357 172.227 26.2462 171.521 27.1144L172.628 28.0147ZM174.742 26.2342L175.454 27.4706C176.022 27.1437 176.721 26.9561 177.598 26.9561V25.5295V24.1028C176.299 24.1028 175.094 24.3851 174.03 24.9979L174.742 26.2342ZM177.598 25.5295V26.9561C178.762 26.9561 179.83 27.174 180.816 27.5998L181.382 26.2899L181.947 24.98C180.584 24.3919 179.13 24.1028 177.598 24.1028V25.5295ZM181.382 26.2899L180.821 27.6019C181.841 28.0374 182.724 28.6379 183.482 29.406L184.497 28.4042L185.513 27.4024C184.49 26.3653 183.296 25.5563 181.942 24.9779L181.382 26.2899ZM184.497 28.4042L183.489 29.413C184.249 30.1737 184.847 31.055 185.283 32.0668L186.593 31.5015L187.903 30.9362C187.326 29.5988 186.526 28.4152 185.506 27.3954L184.497 28.4042ZM186.593 31.5015L185.283 32.0668C185.709 33.0535 185.927 34.1211 185.927 35.285H187.354H188.78C188.78 33.7534 188.491 32.2988 187.903 30.9362L186.593 31.5015ZM187.354 35.285H185.927C185.927 36.4488 185.709 37.5247 185.281 38.5267L186.593 39.0871L187.905 39.6474C188.491 38.2755 188.78 36.8167 188.78 35.285H187.354ZM186.593 39.0871L185.281 38.5267C184.843 39.5523 184.244 40.4467 183.482 41.2196L184.497 42.2215L185.513 43.2233C186.531 42.1911 187.329 40.9958 187.905 39.6474L186.593 39.0871ZM184.497 42.2215L183.489 41.2127C182.73 41.9709 181.845 42.568 180.821 43.0052L181.382 44.3172L181.942 45.6293C183.292 45.0526 184.484 44.2526 185.506 43.2303L184.497 42.2215ZM181.382 44.3172L180.816 43.0074C179.83 43.4332 178.762 43.651 177.598 43.651V45.0777V46.5043C179.13 46.5043 180.584 46.2152 181.947 45.6271L181.382 44.3172ZM177.598 45.0777V43.651C176.721 43.651 176.022 43.4634 175.454 43.1365L174.742 44.3729L174.03 45.6093C175.094 46.222 176.299 46.5043 177.598 46.5043V45.0777ZM174.742 44.3729L175.454 43.1365C174.784 42.7506 174.21 42.2672 173.727 41.6828L172.628 42.5924L171.528 43.502C172.232 44.3518 173.068 45.0555 174.03 45.6093L174.742 44.3729ZM172.628 42.5924H171.201V53.8317H172.628H174.054V42.5924H172.628ZM177.524 30.4443V29.0177C176.416 29.0177 175.382 29.3158 174.461 29.9183L175.243 31.112L176.024 32.3057C176.463 32.018 176.951 31.871 177.524 31.871V30.4443ZM175.243 31.112L174.467 29.9148C173.59 30.4829 172.898 31.2455 172.394 32.1752L173.648 32.8554L174.902 33.5356C175.189 33.0063 175.56 32.6066 176.019 32.3092L175.243 31.112ZM173.648 32.8554L172.385 32.1918C171.885 33.1422 171.646 34.1826 171.646 35.285H173.073H174.499C174.499 34.607 174.643 34.0276 174.911 33.519L173.648 32.8554ZM173.073 35.285H171.646C171.646 36.3877 171.885 37.4304 172.38 38.388L173.648 37.7332L174.915 37.0783C174.643 36.5522 174.499 35.9629 174.499 35.285H173.073ZM173.648 37.7332L172.394 38.4134C172.898 39.3431 173.59 40.1057 174.467 40.6738L175.243 39.4766L176.019 38.2794C175.56 37.982 175.189 37.5823 174.902 37.053L173.648 37.7332ZM175.243 39.4766L174.477 40.6802C175.396 41.2651 176.424 41.5524 177.524 41.5524V40.1257V38.699C176.942 38.699 176.45 38.5536 176.009 38.2729L175.243 39.4766ZM177.524 40.1257V41.5524C178.624 41.5524 179.654 41.2652 180.58 40.6864L179.824 39.4766L179.068 38.2668C178.609 38.5534 178.106 38.699 177.524 38.699V40.1257ZM179.824 39.4766L180.57 40.6923C181.485 40.1305 182.212 39.3696 182.738 38.4296L181.493 37.7332L180.248 37.0367C179.957 37.5557 179.572 37.9571 179.077 38.2608L179.824 39.4766ZM181.493 37.7332L182.729 38.4455C183.283 37.4838 183.55 36.419 183.55 35.285H182.123H180.697C180.697 35.9562 180.543 36.5236 180.257 37.0208L181.493 37.7332ZM182.123 35.285H183.55C183.55 34.176 183.29 33.1307 182.757 32.1775L181.511 32.8739L180.266 33.5704C180.549 34.0762 180.697 34.6383 180.697 35.285H182.123ZM181.511 32.8739L182.762 32.1864C182.237 31.2332 181.51 30.4616 180.589 29.8963L179.842 31.112L179.096 32.3278C179.585 32.6279 179.97 33.031 180.261 33.5615L181.511 32.8739ZM179.842 31.112L180.614 29.9119C179.683 29.3133 178.64 29.0177 177.524 29.0177V30.4443V31.871C178.114 31.871 178.617 32.0205 179.071 32.3121L179.842 31.112Z" fill="#8F8981" mask="url(#path-4-outside-1_1754_3884)"/>
<circle cx="196.364" cy="32.3887" r="2.85333" fill="#666666"/>
<circle cx="16.6018" cy="32.3887" r="2.85333" fill="#666666"/>
</g>
</svg>
