<svg preserveAspectRatio="none" width="100%" height="100%" overflow="visible" style="display: block;" viewBox="0 0 77 30" fill="none" xmlns="http://www.w3.org/2000/svg">
<g id="Time">
<g id="9:41">
<path d="M23.2749 23.1833C27.1083 23.1833 29.3853 20.1856 29.3853 15.1092C29.3853 13.1978 29.0197 11.5892 28.3199 10.3463C27.3067 8.41391 25.5624 7.3694 23.3585 7.3694C20.0787 7.3694 17.7599 9.57332 17.7599 12.6651C17.7599 15.5688 19.8489 17.6787 22.7213 17.6787C24.4865 17.6787 25.9175 16.8536 26.6278 15.4226H26.6591C26.6591 15.4226 26.7009 15.4226 26.7113 15.4226C26.7322 15.4226 26.8054 15.4226 26.8054 15.4226C26.8054 18.8695 25.4997 20.9272 23.2958 20.9272C22.0006 20.9272 20.9979 20.2169 20.6532 19.0784H17.9688C18.4179 21.5539 20.5174 23.1833 23.2749 23.1833ZM23.3689 15.5375C21.635 15.5375 20.4025 14.305 20.4025 12.5815C20.4025 10.8999 21.6977 9.6151 23.3794 9.6151C25.061 9.6151 26.3562 10.9207 26.3562 12.6233C26.3562 14.305 25.0924 15.5375 23.3689 15.5375Z" fill="var(--fill-0, #585858)"/>
<path d="M33.7936 23.0371C34.7858 23.0371 35.4648 22.3268 35.4648 21.3868C35.4648 20.4363 34.7858 19.7364 33.7936 19.7364C32.8117 19.7364 32.1223 20.4363 32.1223 21.3868C32.1223 22.3268 32.8117 23.0371 33.7936 23.0371ZM33.7936 15.2032C34.7858 15.2032 35.4648 14.5034 35.4648 13.5634C35.4648 12.6129 34.7858 11.913 33.7936 11.913C32.8117 11.913 32.1223 12.6129 32.1223 13.5634C32.1223 14.5034 32.8117 15.2032 33.7936 15.2032Z" fill="var(--fill-0, #585858)"/>
<path d="M45.2418 22.8177H47.8218V20.008H49.8586V17.731H47.8218V7.74542H44.0198C41.3563 11.7564 39.2359 15.1092 37.878 17.6056V20.008H45.2418V22.8177ZM40.3744 17.637C42.1292 14.5452 43.696 12.0697 45.1374 9.9389H45.2836V17.7936H40.3744V17.637Z" fill="var(--fill-0, #585858)"/>
<path d="M55.6038 22.8177H58.2987V7.74542H55.6143L51.6765 10.5029V13.0933L55.4263 10.4612H55.6038V22.8177Z" fill="var(--fill-0, #585858)"/>
</g>
</g>
</svg>
