<svg width="140" height="140" viewBox="0 0 140 140" fill="none" xmlns="http://www.w3.org/2000/svg">
<path d="M88.9518 104.851C79.2482 108.365 65.0901 104.173 57.3205 101.272C53.9659 100.02 52.1736 96.4988 52.8524 92.983C53.6092 89.0642 57.1914 86.341 61.17 86.6604L65.7154 87.0252L54.4444 73.7869C52.6136 71.6366 52.8726 68.4091 55.023 66.5783C57.1734 64.7475 60.4008 65.0066 62.2316 67.1569L56.9276 60.9272C55.0968 58.7768 55.3558 55.5494 57.5062 53.7185C59.6566 51.8877 62.884 52.1468 64.7148 54.2971L75.3228 66.7567C73.492 64.6063 73.7511 61.3789 75.9014 59.5481C78.0518 57.7173 81.2792 57.9763 83.11 60.1267L87.0881 64.799C85.2572 62.6486 85.5163 59.4212 87.6667 57.5904C89.817 55.7596 93.0445 56.0186 94.8753 58.169L105.308 70.4229C106.727 72.0899 107.718 74.088 107.917 76.2684C108.247 79.8858 108.314 85.7701 106.084 90.2654C102.622 97.2425 97.925 101.602 88.9518 104.851Z" stroke="#888888" stroke-width="8.18184" stroke-linecap="round" stroke-linejoin="round"/>
<path d="M31.6411 59.6216L65.9049 30.4495" stroke="#888888" stroke-width="8.18184" stroke-linecap="round" stroke-linejoin="round"/>
<path d="M43.1754 60.547L31.6412 59.6216L32.5669 48.0878" stroke="#888888" stroke-width="8.18184" stroke-linecap="round" stroke-linejoin="round"/>
<path d="M54.3711 29.5239L65.9049 30.4497L64.9791 41.9835" stroke="#888888" stroke-width="8.18184" stroke-linecap="round" stroke-linejoin="round"/>
</svg>
